<svg width="80" height="80" viewBox="0 0 80 80" fill="none" xmlns="http://www.w3.org/2000/svg">
<circle cx="40" cy="40" r="40" fill="#E5F3F8"/>
<rect x="49.275" y="29.6679" width="11.2562" height="11.1533" rx="5.5" fill="white" stroke="#2A9DDD"/>
<rect x="41.325" y="42.4781" width="11.5875" height="1.9562" rx="0.978102" fill="#E5F3F8" stroke="#2A9DDD"/>
<rect x="56.0597" y="32.1241" width="9.61181" height="0.656934" rx="0.328467" fill="#E5F3F8" stroke="#2A9DDD" stroke-width="0.656934"/>
<rect x="55.066" y="34.7518" width="9.61181" height="0.656934" rx="0.328467" fill="#E5F3F8" stroke="#2A9DDD" stroke-width="0.656934"/>
<rect x="56.0597" y="37.3796" width="9.61181" height="0.656934" rx="0.328467" fill="#E5F3F8" stroke="#2A9DDD" stroke-width="0.656934"/>
<rect x="16.4813" y="46.0912" width="6.61875" height="1.9562" rx="0.978102" fill="#E5F3F8" stroke="#2A9DDD"/>
<mask id="path-8-inside-1_1133_93" fill="white">
<path fill-rule="evenodd" clip-rule="evenodd" d="M37.0418 35.7158L39.5906 32.2776L40.2059 37.6827L36.3837 38.2778C36.2568 38.2976 36.1346 38.3286 36.0178 38.3698C35.2286 38.4128 34.5748 39.0364 34.5146 39.8453L33.621 51.848C33.5557 52.7261 34.2146 53.4901 35.0928 53.5543C35.9709 53.6186 36.7358 52.9589 36.8012 52.0808L37.5354 42.2184L45.2279 41.0206C46.2971 40.8541 47.0393 39.884 46.9366 38.8214C47.0939 38.357 47.1539 37.8512 47.0947 37.3313L46.3107 30.4435C46.0957 28.5546 44.3898 27.1948 42.5005 27.4063C41.9308 27.47 41.4095 27.6694 40.965 27.9686C40.4537 27.7394 39.8326 27.8879 39.4861 28.3552L35.0863 34.2903C35.0833 34.2942 35.0804 34.2982 35.0775 34.3022L31.0086 35.4861C30.4294 35.6546 30.0986 36.2601 30.2697 36.8386C30.4409 37.417 31.0492 37.7493 31.6284 37.5808L36.3515 36.2066C36.4941 36.1651 36.6216 36.0972 36.7303 36.0097C36.8477 35.933 36.9537 35.8347 37.0418 35.7158Z"/>
</mask>
<path fill-rule="evenodd" clip-rule="evenodd" d="M37.0418 35.7158L39.5906 32.2776L40.2059 37.6827L36.3837 38.2778C36.2568 38.2976 36.1346 38.3286 36.0178 38.3698C35.2286 38.4128 34.5748 39.0364 34.5146 39.8453L33.621 51.848C33.5557 52.7261 34.2146 53.4901 35.0928 53.5543C35.9709 53.6186 36.7358 52.9589 36.8012 52.0808L37.5354 42.2184L45.2279 41.0206C46.2971 40.8541 47.0393 39.884 46.9366 38.8214C47.0939 38.357 47.1539 37.8512 47.0947 37.3313L46.3107 30.4435C46.0957 28.5546 44.3898 27.1948 42.5005 27.4063C41.9308 27.47 41.4095 27.6694 40.965 27.9686C40.4537 27.7394 39.8326 27.8879 39.4861 28.3552L35.0863 34.2903C35.0833 34.2942 35.0804 34.2982 35.0775 34.3022L31.0086 35.4861C30.4294 35.6546 30.0986 36.2601 30.2697 36.8386C30.4409 37.417 31.0492 37.7493 31.6284 37.5808L36.3515 36.2066C36.4941 36.1651 36.6216 36.0972 36.7303 36.0097C36.8477 35.933 36.9537 35.8347 37.0418 35.7158Z" fill="white"/>
<path d="M39.5906 32.2776L40.5842 32.1645L40.2974 29.645L38.7873 31.6821L39.5906 32.2776ZM37.0418 35.7158L37.8452 36.3113L37.8452 36.3113L37.0418 35.7158ZM40.2059 37.6827L40.3597 38.6708L41.308 38.5231L41.1995 37.5696L40.2059 37.6827ZM36.3837 38.2778L36.5375 39.2659L36.5375 39.2659L36.3837 38.2778ZM36.0178 38.3698L36.0722 39.3683L36.2153 39.3605L36.3504 39.3129L36.0178 38.3698ZM34.5146 39.8453L33.5173 39.7711L33.5173 39.7711L34.5146 39.8453ZM33.621 51.848L34.6183 51.9223L34.6183 51.9223L33.621 51.848ZM36.8012 52.0808L35.804 52.0066L35.804 52.0066L36.8012 52.0808ZM37.5354 42.2184L37.3815 41.2303L36.5971 41.3524L36.5381 42.1441L37.5354 42.2184ZM45.2279 41.0206L45.3818 42.0087L45.3818 42.0087L45.2279 41.0206ZM46.9366 38.8214L45.9895 38.5006L45.9206 38.7039L45.9412 38.9177L46.9366 38.8214ZM47.0947 37.3313L46.1011 37.4444L46.1011 37.4444L47.0947 37.3313ZM46.3107 30.4435L47.3043 30.3304L47.3043 30.3304L46.3107 30.4435ZM42.5005 27.4063L42.6118 28.4L42.6118 28.4L42.5005 27.4063ZM40.965 27.9686L40.556 28.8811L41.0628 29.1082L41.5235 28.7981L40.965 27.9686ZM39.4861 28.3552L38.6828 27.7597L38.6828 27.7597L39.4861 28.3552ZM35.0863 34.2903L34.2829 33.6948L34.2829 33.6948L35.0863 34.2903ZM35.0775 34.3022L35.3569 35.2624L35.6867 35.1664L35.8879 34.8881L35.0775 34.3022ZM31.0086 35.4861L30.7292 34.5259L30.7292 34.5259L31.0086 35.4861ZM30.2697 36.8386L29.3108 37.1223L29.3108 37.1223L30.2697 36.8386ZM31.6284 37.5808L31.9078 38.541L31.9078 38.541L31.6284 37.5808ZM36.3515 36.2066L36.6309 37.1668L36.6309 37.1668L36.3515 36.2066ZM36.7303 36.0097L36.1836 35.1723L36.1419 35.1995L36.1031 35.2307L36.7303 36.0097ZM38.7873 31.6821L36.2385 35.1202L37.8452 36.3113L40.394 32.8731L38.7873 31.6821ZM41.1995 37.5696L40.5842 32.1645L38.5971 32.3907L39.2123 37.7958L41.1995 37.5696ZM36.5375 39.2659L40.3597 38.6708L40.052 36.6946L36.2298 37.2897L36.5375 39.2659ZM36.3504 39.3129C36.4094 39.2921 36.4718 39.2761 36.5375 39.2659L36.2298 37.2897C36.0419 37.319 35.8598 37.3652 35.6852 37.4268L36.3504 39.3129ZM35.5118 39.9196C35.5342 39.6184 35.7784 39.3843 36.0722 39.3683L35.9634 37.3713C34.6788 37.4413 33.6153 38.4544 33.5173 39.7711L35.5118 39.9196ZM34.6183 51.9223L35.5118 39.9196L33.5173 39.7711L32.6238 51.7738L34.6183 51.9223ZM35.1658 52.557C34.8389 52.5331 34.594 52.2491 34.6183 51.9223L32.6238 51.7738C32.5174 53.2031 33.5903 54.447 35.0198 54.5517L35.1658 52.557ZM35.804 52.0066C35.7796 52.3344 35.4936 52.581 35.1658 52.557L35.0198 54.5517C36.4483 54.6562 37.6921 53.5834 37.7984 52.155L35.804 52.0066ZM36.5381 42.1441L35.804 52.0066L37.7984 52.155L38.5326 42.2926L36.5381 42.1441ZM45.074 40.0325L37.3815 41.2303L37.6892 43.2065L45.3818 42.0087L45.074 40.0325ZM45.9412 38.9177C45.9933 39.4561 45.6167 39.948 45.074 40.0325L45.3818 42.0087C46.9774 41.7602 48.0853 40.312 47.9319 38.7252L45.9412 38.9177ZM46.1011 37.4444C46.1433 37.8151 46.1005 38.1728 45.9895 38.5006L47.8837 39.1423C48.0874 38.5412 48.1644 37.8873 48.0883 37.2182L46.1011 37.4444ZM45.3171 30.5566L46.1011 37.4444L48.0883 37.2182L47.3043 30.3304L45.3171 30.5566ZM42.6118 28.4C43.9529 28.2499 45.1645 29.2157 45.3171 30.5566L47.3043 30.3304C47.0269 27.8935 44.8267 26.1397 42.3893 26.4125L42.6118 28.4ZM41.5235 28.7981C41.8373 28.5868 42.2058 28.4455 42.6118 28.4L42.3893 26.4125C41.6558 26.4946 40.9816 26.7519 40.4066 27.139L41.5235 28.7981ZM40.2894 28.9508C40.3499 28.8691 40.4634 28.8396 40.556 28.8811L41.3741 27.056C40.4441 26.6392 39.3152 26.9066 38.6828 27.7597L40.2894 28.9508ZM35.8896 34.8858L40.2894 28.9508L38.6828 27.7597L34.2829 33.6948L35.8896 34.8858ZM35.8879 34.8881C35.8885 34.8873 35.889 34.8866 35.8896 34.8858L34.2829 33.6948C34.2776 33.7019 34.2724 33.7091 34.2671 33.7163L35.8879 34.8881ZM31.2879 36.4463L35.3569 35.2624L34.7982 33.342L30.7292 34.5259L31.2879 36.4463ZM31.2286 36.5548C31.2147 36.5077 31.2407 36.46 31.2879 36.4463L30.7292 34.5259C29.618 34.8492 28.9825 36.0126 29.3108 37.1223L31.2286 36.5548ZM31.349 36.6206C31.2984 36.6353 31.2436 36.6054 31.2286 36.5548L29.3108 37.1223C29.6382 38.2286 30.8 38.8633 31.9078 38.541L31.349 36.6206ZM36.0722 35.2464L31.349 36.6206L31.9078 38.541L36.6309 37.1668L36.0722 35.2464ZM36.1031 35.2307C36.0956 35.2368 36.086 35.2424 36.0722 35.2464L36.6309 37.1668C36.9022 37.0878 37.1475 36.9576 37.3574 36.7886L36.1031 35.2307ZM36.2385 35.1202C36.2221 35.1423 36.2036 35.1593 36.1836 35.1723L37.2769 36.847C37.4918 36.7067 37.6852 36.5271 37.8452 36.3113L36.2385 35.1202Z" fill="#2A9DDD" mask="url(#path-8-inside-1_1133_93)"/>
<path d="M32.7062 31.6314C32.7062 32.349 32.1184 32.938 31.3844 32.938C30.6503 32.938 30.0625 32.349 30.0625 31.6314C30.0625 30.9138 30.6503 30.3248 31.3844 30.3248C32.1184 30.3248 32.7062 30.9138 32.7062 31.6314Z" fill="#E5F3F8" stroke="#2A9DDD"/>
<mask id="path-11-inside-2_1133_93" fill="white">
<path d="M57.0562 56.1022C57.0562 59.9117 53.9418 63 50.1 63C46.2582 63 43.1437 59.9117 43.1437 56.1022C43.1437 52.2926 46.2582 49.2044 50.1 49.2044C53.9418 49.2044 57.0562 52.2926 57.0562 56.1022ZM46.6219 56.1022C46.6219 58.007 48.1791 59.5511 50.1 59.5511C52.0209 59.5511 53.5781 58.007 53.5781 56.1022C53.5781 54.1974 52.0209 52.6533 50.1 52.6533C48.1791 52.6533 46.6219 54.1974 46.6219 56.1022Z"/>
</mask>
<path d="M57.0562 56.1022C57.0562 59.9117 53.9418 63 50.1 63C46.2582 63 43.1437 59.9117 43.1437 56.1022C43.1437 52.2926 46.2582 49.2044 50.1 49.2044C53.9418 49.2044 57.0562 52.2926 57.0562 56.1022ZM46.6219 56.1022C46.6219 58.007 48.1791 59.5511 50.1 59.5511C52.0209 59.5511 53.5781 58.007 53.5781 56.1022C53.5781 54.1974 52.0209 52.6533 50.1 52.6533C48.1791 52.6533 46.6219 54.1974 46.6219 56.1022Z" fill="#E5F3F8" stroke="#2A9DDD" stroke-width="2" mask="url(#path-11-inside-2_1133_93)"/>
<rect x="25.7562" y="54.3029" width="19.5375" height="1.9562" rx="0.978102" fill="white" stroke="#2A9DDD"/>
<mask id="path-13-inside-3_1133_93" fill="white">
<path fill-rule="evenodd" clip-rule="evenodd" d="M24.7413 35.7372C23.5622 35.7372 22.6063 36.6931 22.6063 37.8723C22.6063 39.0514 23.5622 40.0073 24.7413 40.0073H25.9825L22.995 51.0631C22.7803 51.8574 23.251 52.6726 24.0462 52.8839C24.8414 53.0952 25.66 52.6226 25.8746 51.8283L29.1038 39.8781C29.1167 39.8302 29.1272 39.7823 29.1352 39.7344C29.7856 39.3685 30.225 38.6717 30.225 37.8723C30.225 36.6931 29.2691 35.7372 28.09 35.7372H24.7413Z"/>
</mask>
<path fill-rule="evenodd" clip-rule="evenodd" d="M24.7413 35.7372C23.5622 35.7372 22.6063 36.6931 22.6063 37.8723C22.6063 39.0514 23.5622 40.0073 24.7413 40.0073H25.9825L22.995 51.0631C22.7803 51.8574 23.251 52.6726 24.0462 52.8839C24.8414 53.0952 25.66 52.6226 25.8746 51.8283L29.1038 39.8781C29.1167 39.8302 29.1272 39.7823 29.1352 39.7344C29.7856 39.3685 30.225 38.6717 30.225 37.8723C30.225 36.6931 29.2691 35.7372 28.09 35.7372H24.7413Z" fill="white"/>
<path d="M25.9825 40.0073L26.9478 40.2682L27.2885 39.0073H25.9825V40.0073ZM22.995 51.0631L23.9603 51.324L23.9603 51.324L22.995 51.0631ZM24.0462 52.8839L24.303 51.9174L24.303 51.9174L24.0462 52.8839ZM25.8746 51.8283L24.9093 51.5674L24.9093 51.5674L25.8746 51.8283ZM29.1038 39.8781L28.1384 39.6172L28.1384 39.6172L29.1038 39.8781ZM29.1352 39.7344L28.6449 38.8628L28.2282 39.0973L28.149 39.5689L29.1352 39.7344ZM23.6063 37.8723C23.6063 37.2454 24.1144 36.7372 24.7413 36.7372V34.7372C23.0099 34.7372 21.6063 36.1408 21.6063 37.8723H23.6063ZM24.7413 39.0073C24.1144 39.0073 23.6063 38.4991 23.6063 37.8723H21.6063C21.6063 39.6037 23.0099 41.0073 24.7413 41.0073V39.0073ZM25.9825 39.0073H24.7413V41.0073H25.9825V39.0073ZM23.9603 51.324L26.9478 40.2682L25.0171 39.7464L22.0296 50.8023L23.9603 51.324ZM24.303 51.9174C24.0431 51.8484 23.8902 51.5836 23.9603 51.324L22.0296 50.8023C21.6705 52.1313 22.4588 53.4969 23.7894 53.8504L24.303 51.9174ZM24.9093 51.5674C24.8383 51.8301 24.566 51.9873 24.303 51.9174L23.7894 53.8504C25.1167 54.2031 26.4817 53.415 26.84 52.0891L24.9093 51.5674ZM28.1384 39.6172L24.9093 51.5674L26.84 52.0891L30.0692 40.1389L28.1384 39.6172ZM28.149 39.5689C28.1464 39.5847 28.1429 39.6008 28.1384 39.6172L30.0692 40.1389C30.0906 40.0596 30.108 39.9798 30.1214 39.8999L28.149 39.5689ZM29.225 37.8723C29.225 38.296 28.9933 38.6668 28.6449 38.8628L29.6255 40.6059C30.578 40.0701 31.225 39.0474 31.225 37.8723H29.225ZM28.09 36.7372C28.7168 36.7372 29.225 37.2454 29.225 37.8723H31.225C31.225 36.1408 29.8214 34.7372 28.09 34.7372V36.7372ZM24.7413 36.7372H28.09V34.7372H24.7413V36.7372Z" fill="#2A9DDD" mask="url(#path-13-inside-3_1133_93)"/>
<path d="M26.0813 37.8723C26.0813 38.9527 25.1968 39.8358 24.0969 39.8358C22.997 39.8358 22.1125 38.9527 22.1125 37.8723C22.1125 36.7918 22.997 35.9088 24.0969 35.9088C25.1968 35.9088 26.0813 36.7918 26.0813 37.8723Z" fill="#E5F3F8" stroke="#2A9DDD"/>
<path d="M28.5687 36.0657L29.504 32.6872L31.2187 32.1241" stroke="#2A9DDD" stroke-linecap="round" stroke-linejoin="round"/>
<path d="M44.3 23.2555C44.3 24.7894 43.0448 26.0401 41.4875 26.0401C39.9302 26.0401 38.675 24.7894 38.675 23.2555C38.675 21.7215 39.9302 20.4708 41.4875 20.4708C43.0448 20.4708 44.3 21.7215 44.3 23.2555Z" fill="white" stroke="#2A9DDD"/>
<mask id="path-18-inside-4_1133_93" fill="white">
<path d="M43.5377 23.5173C44.4066 23.7913 45.3753 23.2884 45.2662 22.3856V22.3856C45.2 21.8382 45.0163 21.3113 44.7274 20.8403C44.4385 20.3693 44.0512 19.9651 43.5915 19.6551C43.1317 19.3451 42.6103 19.1364 42.0624 19.0431C41.5145 18.9499 40.9527 18.9741 40.415 19.1143C39.8774 19.2545 39.3762 19.5074 38.9454 19.8558C38.5147 20.2043 38.1642 20.6403 37.9177 21.1345V21.1345C37.5105 21.9509 38.2544 22.744 39.1668 22.7731L40.9904 22.8313C41.2649 22.84 41.5369 22.8863 41.7985 22.9688L43.5377 23.5173Z"/>
</mask>
<path d="M43.5377 23.5173C44.4066 23.7913 45.3753 23.2884 45.2662 22.3856V22.3856C45.2 21.8382 45.0163 21.3113 44.7274 20.8403C44.4385 20.3693 44.0512 19.9651 43.5915 19.6551C43.1317 19.3451 42.6103 19.1364 42.0624 19.0431C41.5145 18.9499 40.9527 18.9741 40.415 19.1143C39.8774 19.2545 39.3762 19.5074 38.9454 19.8558C38.5147 20.2043 38.1642 20.6403 37.9177 21.1345V21.1345C37.5105 21.9509 38.2544 22.744 39.1668 22.7731L40.9904 22.8313C41.2649 22.84 41.5369 22.8863 41.7985 22.9688L43.5377 23.5173Z" fill="#E5F3F8" stroke="#2A9DDD" stroke-width="2" mask="url(#path-18-inside-4_1133_93)"/>
<mask id="path-19-inside-5_1133_93" fill="white">
<path d="M26.9125 56.1022C26.9125 59.9117 23.7981 63 19.9562 63C16.1144 63 13 59.9117 13 56.1022C13 52.2926 16.1144 49.2044 19.9562 49.2044C23.7981 49.2044 26.9125 52.2926 26.9125 56.1022ZM16.4781 56.1022C16.4781 58.007 18.0353 59.5511 19.9562 59.5511C21.8772 59.5511 23.4344 58.007 23.4344 56.1022C23.4344 54.1974 21.8772 52.6533 19.9562 52.6533C18.0353 52.6533 16.4781 54.1974 16.4781 56.1022Z"/>
</mask>
<path d="M26.9125 56.1022C26.9125 59.9117 23.7981 63 19.9562 63C16.1144 63 13 59.9117 13 56.1022C13 52.2926 16.1144 49.2044 19.9562 49.2044C23.7981 49.2044 26.9125 52.2926 26.9125 56.1022ZM16.4781 56.1022C16.4781 58.007 18.0353 59.5511 19.9562 59.5511C21.8772 59.5511 23.4344 58.007 23.4344 56.1022C23.4344 54.1974 21.8772 52.6533 19.9562 52.6533C18.0353 52.6533 16.4781 54.1974 16.4781 56.1022Z" fill="#E5F3F8" stroke="#2A9DDD" stroke-width="2" mask="url(#path-19-inside-5_1133_93)"/>
<rect x="41.325" y="46.0912" width="18.2125" height="10.1679" rx="5.08394" fill="white" stroke="#2A9DDD"/>
</svg>
