<svg width="181" height="151" viewBox="0 0 181 151" fill="none" xmlns="http://www.w3.org/2000/svg">
<rect x="118.5" y="34.5" width="36" height="36" rx="5.5" fill="white" stroke="#2A9DDD"/>
<rect x="94.5" y="73.5" width="37" height="8" rx="4" fill="#E5F3F8" stroke="#2A9DDD"/>
<rect x="139.5" y="42.5" width="30" height="3" rx="1.5" fill="#E5F3F8" stroke="#2A9DDD"/>
<rect x="136.5" y="50.5" width="30" height="3" rx="1.5" fill="#E5F3F8" stroke="#2A9DDD"/>
<rect x="139.5" y="58.5" width="30" height="3" rx="1.5" fill="#E5F3F8" stroke="#2A9DDD"/>
<rect x="19.5" y="84.5" width="22" height="8" rx="4" fill="#E5F3F8" stroke="#2A9DDD"/>
<mask id="path-7-inside-1_1_428" fill="white">
<path fill-rule="evenodd" clip-rule="evenodd" d="M82.5739 53.9421L90.2737 43.4676L92.131 59.9228L80.6412 61.727C80.2505 61.7884 79.8741 61.885 79.5147 62.0131C77.1205 62.1288 75.1338 64.0153 74.9529 66.4666L72.2495 103.089C72.0538 105.74 74.0443 108.048 76.6954 108.243C79.3465 108.439 81.6543 106.448 81.85 103.797L84.0694 73.7315L107.243 70.0926C107.438 70.062 107.629 70.0225 107.817 69.9748L109.134 69.8261C111.878 69.5164 113.852 67.0409 113.542 64.2969L109.946 32.4397C109.636 29.6957 107.161 27.7223 104.417 28.032L93.6997 29.2417C92.3735 29.3913 91.2273 30.0469 90.4319 30.9943C90.2624 31.1508 90.1054 31.3257 89.9636 31.5185L76.6702 49.6023C76.6632 49.6119 76.6561 49.6216 76.6492 49.6312L64.3883 53.2288C62.6273 53.7455 61.6186 55.592 62.1353 57.353C62.652 59.114 64.4985 60.1227 66.2595 59.606L80.4729 55.4356C80.8849 55.3147 81.2557 55.121 81.5754 54.8727C81.9531 54.6349 82.2935 54.3235 82.5739 53.9421Z"/>
</mask>
<path fill-rule="evenodd" clip-rule="evenodd" d="M82.5739 53.9421L90.2737 43.4676L92.131 59.9228L80.6412 61.727C80.2505 61.7884 79.8741 61.885 79.5147 62.0131C77.1205 62.1288 75.1338 64.0153 74.9529 66.4666L72.2495 103.089C72.0538 105.74 74.0443 108.048 76.6954 108.243C79.3465 108.439 81.6543 106.448 81.85 103.797L84.0694 73.7315L107.243 70.0926C107.438 70.062 107.629 70.0225 107.817 69.9748L109.134 69.8261C111.878 69.5164 113.852 67.0409 113.542 64.2969L109.946 32.4397C109.636 29.6957 107.161 27.7223 104.417 28.032L93.6997 29.2417C92.3735 29.3913 91.2273 30.0469 90.4319 30.9943C90.2624 31.1508 90.1054 31.3257 89.9636 31.5185L76.6702 49.6023C76.6632 49.6119 76.6561 49.6216 76.6492 49.6312L64.3883 53.2288C62.6273 53.7455 61.6186 55.592 62.1353 57.353C62.652 59.114 64.4985 60.1227 66.2595 59.606L80.4729 55.4356C80.8849 55.3147 81.2557 55.121 81.5754 54.8727C81.9531 54.6349 82.2935 54.3235 82.5739 53.9421Z" fill="white"/>
<path d="M90.2737 43.4676L91.2673 43.3554L90.9808 40.8172L89.4679 42.8753L90.2737 43.4676ZM82.5739 53.9421L81.7681 53.3498L82.5739 53.9421ZM92.131 59.9228L92.2861 60.9107L93.2321 60.7622L93.1247 59.8106L92.131 59.9228ZM80.6412 61.727L80.4861 60.7391H80.4861L80.6412 61.727ZM79.5147 62.0131L79.563 63.0119L79.711 63.0048L79.8506 62.955L79.5147 62.0131ZM74.9529 66.4666L75.9501 66.5403L74.9529 66.4666ZM72.2495 103.089L73.2468 103.162L72.2495 103.089ZM76.6954 108.243L76.6218 109.241H76.6218L76.6954 108.243ZM81.85 103.797L80.8527 103.724L81.85 103.797ZM84.0694 73.7315L83.9142 72.7436L83.1305 72.8666L83.0721 73.6578L84.0694 73.7315ZM107.243 70.0926L107.088 69.1047L107.243 70.0926ZM107.817 69.9748L107.705 68.9811L107.637 68.9888L107.57 69.0057L107.817 69.9748ZM109.134 69.8261L109.246 70.8198L109.134 69.8261ZM113.542 64.2969L114.536 64.1847L113.542 64.2969ZM109.946 32.4397L108.952 32.5518L109.946 32.4397ZM104.417 28.032L104.529 29.0257L104.417 28.032ZM93.6997 29.2417L93.5875 28.248L93.6997 29.2417ZM90.4319 30.9943L91.1105 31.7288L91.157 31.6858L91.1977 31.6373L90.4319 30.9943ZM89.9636 31.5185L90.7694 32.1108L90.7694 32.1108L89.9636 31.5185ZM76.6702 49.6023L77.4759 50.1946L77.4759 50.1946L76.6702 49.6023ZM76.6492 49.6312L76.9307 50.5908L77.2599 50.4942L77.4605 50.2158L76.6492 49.6312ZM64.3883 53.2288L64.6699 54.1883H64.6699L64.3883 53.2288ZM62.1353 57.353L63.0948 57.0715L62.1353 57.353ZM66.2595 59.606L65.978 58.6465H65.978L66.2595 59.606ZM80.4729 55.4356L80.1913 54.476L80.4729 55.4356ZM81.5754 54.8727L81.0426 54.0265L81.0009 54.0527L80.962 54.0829L81.5754 54.8727ZM89.4679 42.8753L81.7681 53.3498L83.3796 54.5344L91.0794 44.0599L89.4679 42.8753ZM93.1247 59.8106L91.2673 43.3554L89.28 43.5798L91.1373 60.035L93.1247 59.8106ZM80.7963 62.7149L92.2861 60.9107L91.9759 58.9349L80.4861 60.7391L80.7963 62.7149ZM79.8506 62.955C80.1515 62.8477 80.4674 62.7665 80.7963 62.7149L80.4861 60.7391C80.0335 60.8102 79.5966 60.9222 79.1789 61.0712L79.8506 62.955ZM75.9501 66.5403C76.0934 64.599 77.6672 63.1035 79.563 63.0119L79.4665 61.0143C76.5738 61.154 74.1742 63.4317 73.9556 66.393L75.9501 66.5403ZM73.2468 103.162L75.9501 66.5403L73.9556 66.393L71.2523 103.015L73.2468 103.162ZM76.7691 107.246C74.6687 107.091 73.0918 105.263 73.2468 103.162L71.2523 103.015C71.0159 106.217 73.4199 109.004 76.6218 109.241L76.7691 107.246ZM80.8527 103.724C80.6977 105.824 78.8694 107.401 76.7691 107.246L76.6218 109.241C79.8237 109.477 82.6109 107.073 82.8473 103.871L80.8527 103.724ZM83.0721 73.6578L80.8527 103.724L82.8473 103.871L85.0667 73.8051L83.0721 73.6578ZM107.088 69.1047L83.9142 72.7436L84.2245 74.7194L107.398 71.0805L107.088 69.1047ZM107.57 69.0057C107.413 69.0458 107.252 69.0789 107.088 69.1047L107.398 71.0805C107.624 71.045 107.846 70.9993 108.064 70.9439L107.57 69.0057ZM109.022 68.8324L107.705 68.9811L107.929 70.9685L109.246 70.8198L109.022 68.8324ZM112.548 64.409C112.796 66.6042 111.217 68.5847 109.022 68.8324L109.246 70.8198C112.539 70.4482 114.907 67.4775 114.536 64.1847L112.548 64.409ZM108.952 32.5518L112.548 64.409L114.536 64.1847L110.94 32.3275L108.952 32.5518ZM104.529 29.0257C106.724 28.7779 108.705 30.3566 108.952 32.5518L110.94 32.3275C110.568 29.0347 107.597 26.6666 104.305 27.0383L104.529 29.0257ZM93.8119 30.2353L104.529 29.0257L104.305 27.0383L93.5875 28.248L93.8119 30.2353ZM91.1977 31.6373C91.8348 30.8785 92.7504 30.3551 93.8119 30.2353L93.5875 28.248C91.9965 28.4275 90.6198 29.2154 89.666 30.3512L91.1977 31.6373ZM90.7694 32.1108C90.8731 31.9696 90.9876 31.8423 91.1105 31.7288L89.7533 30.2597C89.5372 30.4593 89.3376 30.6818 89.1579 30.9262L90.7694 32.1108ZM77.4759 50.1946L90.7694 32.1108L89.1579 30.9262L75.8645 49.01L77.4759 50.1946ZM77.4605 50.2158C77.4657 50.2086 77.4708 50.2016 77.4759 50.1946L75.8645 49.01C75.8555 49.0223 75.8466 49.0345 75.8378 49.0466L77.4605 50.2158ZM64.6699 54.1883L76.9307 50.5908L76.3676 48.6717L64.1068 52.2693L64.6699 54.1883ZM63.0948 57.0715C62.7336 55.8404 63.4388 54.5496 64.6699 54.1883L64.1068 52.2693C61.8158 52.9415 60.5035 55.3436 61.1757 57.6346L63.0948 57.0715ZM65.978 58.6465C64.7469 59.0077 63.4561 58.3025 63.0948 57.0715L61.1757 57.6346C61.848 59.9255 64.2501 61.2378 66.5411 60.5656L65.978 58.6465ZM80.1913 54.476L65.978 58.6465L66.5411 60.5656L80.7544 56.3951L80.1913 54.476ZM80.962 54.0829C80.7397 54.2556 80.4811 54.391 80.1913 54.476L80.7544 56.3951C81.2886 56.2384 81.7717 55.9864 82.1888 55.6625L80.962 54.0829ZM81.7681 53.3498C81.5632 53.6286 81.316 53.8544 81.0426 54.0265L82.1082 55.719C82.5903 55.4154 83.0237 55.0185 83.3796 54.5344L81.7681 53.3498Z" fill="#2A9DDD" mask="url(#path-7-inside-1_1_428)"/>
<circle cx="65.5" cy="41.5" r="5" fill="#E5F3F8" stroke="#2A9DDD"/>
<mask id="path-10-inside-2_1_428" fill="white">
<path d="M143 116C143 127.598 133.598 137 122 137C110.402 137 101 127.598 101 116C101 104.402 110.402 95 122 95C133.598 95 143 104.402 143 116ZM111.5 116C111.5 121.799 116.201 126.5 122 126.5C127.799 126.5 132.5 121.799 132.5 116C132.5 110.201 127.799 105.5 122 105.5C116.201 105.5 111.5 110.201 111.5 116Z"/>
</mask>
<path d="M143 116C143 127.598 133.598 137 122 137C110.402 137 101 127.598 101 116C101 104.402 110.402 95 122 95C133.598 95 143 104.402 143 116ZM111.5 116C111.5 121.799 116.201 126.5 122 126.5C127.799 126.5 132.5 121.799 132.5 116C132.5 110.201 127.799 105.5 122 105.5C116.201 105.5 111.5 110.201 111.5 116Z" fill="#E5F3F8" stroke="#2A9DDD" stroke-width="2" mask="url(#path-10-inside-2_1_428)"/>
<rect x="47.5" y="109.5" width="61" height="8" rx="4" fill="white" stroke="#2A9DDD"/>
<mask id="path-12-inside-3_1_428" fill="white">
<path fill-rule="evenodd" clip-rule="evenodd" d="M45.5 54C41.9101 54 39 56.9101 39 60.5C39 64.0899 41.9101 67 45.5 67H49.1924L40.165 100.691C39.5218 103.091 40.9464 105.559 43.347 106.202C45.7476 106.845 48.2151 105.421 48.8584 103.02L58.6239 66.5747C58.6618 66.4332 58.6925 66.2914 58.7163 66.1498C60.6777 65.0308 62 62.9198 62 60.5C62 56.9101 59.0899 54 55.5 54H45.5Z"/>
</mask>
<path fill-rule="evenodd" clip-rule="evenodd" d="M45.5 54C41.9101 54 39 56.9101 39 60.5C39 64.0899 41.9101 67 45.5 67H49.1924L40.165 100.691C39.5218 103.091 40.9464 105.559 43.347 106.202C45.7476 106.845 48.2151 105.421 48.8584 103.02L58.6239 66.5747C58.6618 66.4332 58.6925 66.2914 58.7163 66.1498C60.6777 65.0308 62 62.9198 62 60.5C62 56.9101 59.0899 54 55.5 54H45.5Z" fill="white"/>
<path d="M49.1924 67L50.1584 67.2588L50.4957 66H49.1924V67ZM40.165 100.691L39.1991 100.432H39.1991L40.165 100.691ZM43.347 106.202L43.0882 107.168L43.347 106.202ZM48.8584 103.02L49.8243 103.279L48.8584 103.02ZM58.6239 66.5747L57.658 66.3159V66.3159L58.6239 66.5747ZM58.7163 66.1498L58.2208 65.2812L57.8087 65.5163L57.7301 65.9842L58.7163 66.1498ZM40 60.5C40 57.4624 42.4624 55 45.5 55V53C41.3579 53 38 56.3579 38 60.5H40ZM45.5 66C42.4624 66 40 63.5376 40 60.5H38C38 64.6421 41.3579 68 45.5 68V66ZM49.1924 66H45.5V68H49.1924V66ZM41.131 100.95L50.1584 67.2588L48.2265 66.7412L39.1991 100.432L41.131 100.95ZM43.6058 105.236C41.7387 104.736 40.6307 102.817 41.131 100.95L39.1991 100.432C38.4129 103.366 40.1541 106.382 43.0882 107.168L43.6058 105.236ZM47.8924 102.761C47.3921 104.628 45.473 105.737 43.6058 105.236L43.0882 107.168C46.0223 107.954 49.0381 106.213 49.8243 103.279L47.8924 102.761ZM57.658 66.3159L47.8924 102.761L49.8243 103.279L59.5898 66.8335L57.658 66.3159ZM57.7301 65.9842C57.7116 66.0945 57.6876 66.2052 57.658 66.3159L59.5898 66.8335C59.636 66.6612 59.6735 66.4883 59.7025 66.3153L57.7301 65.9842ZM61 60.5C61 62.5462 59.883 64.3328 58.2208 65.2812L59.2119 67.0184C61.4724 65.7287 63 63.2934 63 60.5H61ZM55.5 55C58.5376 55 61 57.4624 61 60.5H63C63 56.3579 59.6421 53 55.5 53V55ZM45.5 55H55.5V53H45.5V55Z" fill="#2A9DDD" mask="url(#path-12-inside-3_1_428)"/>
<circle cx="43.5" cy="60.5" r="7" fill="#E5F3F8" stroke="#2A9DDD"/>
<path d="M57 55L59.8235 44.7143L65 43" stroke="#2A9DDD" stroke-linecap="round" stroke-linejoin="round"/>
<circle cx="96" cy="16" r="9.5" fill="white" stroke="#2A9DDD"/>
<mask id="path-17-inside-4_1_428" fill="white">
<path d="M104.08 17.3983C105.659 17.9004 107.388 17.0186 107.475 15.364C107.51 14.6944 107.488 14.0212 107.407 13.3517C107.208 11.6853 106.653 10.081 105.781 8.64707C104.909 7.2131 103.74 5.98275 102.352 5.03895C100.964 4.09515 99.3898 3.45983 97.7356 3.17581C96.0815 2.89179 94.3857 2.96567 92.7625 3.39248C91.1393 3.81928 89.6265 4.58909 88.326 5.65002C87.0255 6.71094 85.9675 8.03833 85.2234 9.54272C84.9245 10.1471 84.679 10.7743 84.4887 11.4173C84.0187 13.0061 85.3548 14.4142 87.0108 14.4675L95.3325 14.7354C95.6086 14.7443 95.882 14.7912 96.1452 14.8749L104.08 17.3983Z"/>
</mask>
<path d="M104.08 17.3983C105.659 17.9004 107.388 17.0186 107.475 15.364C107.51 14.6944 107.488 14.0212 107.407 13.3517C107.208 11.6853 106.653 10.081 105.781 8.64707C104.909 7.2131 103.74 5.98275 102.352 5.03895C100.964 4.09515 99.3898 3.45983 97.7356 3.17581C96.0815 2.89179 94.3857 2.96567 92.7625 3.39248C91.1393 3.81928 89.6265 4.58909 88.326 5.65002C87.0255 6.71094 85.9675 8.03833 85.2234 9.54272C84.9245 10.1471 84.679 10.7743 84.4887 11.4173C84.0187 13.0061 85.3548 14.4142 87.0108 14.4675L95.3325 14.7354C95.6086 14.7443 95.882 14.7912 96.1452 14.8749L104.08 17.3983Z" fill="#E5F3F8" stroke="#2A9DDD" stroke-width="2" mask="url(#path-17-inside-4_1_428)"/>
<mask id="path-18-inside-5_1_428" fill="white">
<path d="M52 116C52 127.598 42.598 137 31 137C19.402 137 10 127.598 10 116C10 104.402 19.402 95 31 95C42.598 95 52 104.402 52 116ZM20.5 116C20.5 121.799 25.201 126.5 31 126.5C36.799 126.5 41.5 121.799 41.5 116C41.5 110.201 36.799 105.5 31 105.5C25.201 105.5 20.5 110.201 20.5 116Z"/>
</mask>
<path d="M52 116C52 127.598 42.598 137 31 137C19.402 137 10 127.598 10 116C10 104.402 19.402 95 31 95C42.598 95 52 104.402 52 116ZM20.5 116C20.5 121.799 25.201 126.5 31 126.5C36.799 126.5 41.5 121.799 41.5 116C41.5 110.201 36.799 105.5 31 105.5C25.201 105.5 20.5 110.201 20.5 116Z" fill="#E5F3F8" stroke="#2A9DDD" stroke-width="2" mask="url(#path-18-inside-5_1_428)"/>
<rect x="94.5" y="84.5" width="57" height="33" rx="14.5" fill="white" stroke="#2A9DDD"/>
<rect y="145" width="111" height="6" rx="3" fill="#E5F3F8"/>
<rect x="147" y="145" width="20" height="6" rx="3" fill="#E5F3F8"/>
<rect x="115" y="145" width="28" height="6" rx="3" fill="#E5F3F8"/>
<rect x="171" y="145" width="10" height="6" rx="3" fill="#E5F3F8"/>
</svg>
