<svg width="80" height="80" viewBox="0 0 80 80" fill="none" xmlns="http://www.w3.org/2000/svg">
<circle cx="40" cy="40" r="40" fill="#E5F3F8"/>
<rect x="18.0587" y="18.694" width="43.4859" height="2.84095" rx="1.42047" fill="white" stroke="#2A9DDD"/>
<path d="M39.2106 25.1879C39.5335 24.9374 39.9962 24.9374 40.3191 25.1879L51.9063 34.176C52.5206 34.6524 52.2137 35.6632 51.352 35.6632H28.1776C27.316 35.6632 27.0091 34.6524 27.6234 34.176L39.2106 25.1879Z" fill="#E5F3F8" stroke="#2A9DDD"/>
<path fill-rule="evenodd" clip-rule="evenodd" d="M40.2695 21.9951C40.1644 21.9147 40.033 21.867 39.8905 21.867C39.5453 21.867 39.2655 22.1468 39.2655 22.492V24.4984C39.2655 24.8435 39.5453 25.1234 39.8905 25.1234C40.2356 25.1234 40.5155 24.8435 40.5155 24.4984V23.0108C40.7147 22.9471 40.9076 22.8636 41.091 22.7613C41.5612 22.4988 41.9523 22.1212 42.2251 21.6662C42.498 21.2111 42.6431 20.6946 42.6459 20.1681C42.6487 19.6416 42.5092 19.1236 42.2412 18.6658C41.9733 18.208 41.5863 17.8265 41.1189 17.5593C40.6515 17.2921 40.1201 17.1485 39.5777 17.143C39.0353 17.1376 38.5009 17.2703 38.0278 17.528C37.7168 17.6974 37.4395 17.9169 37.207 18.176C37.0079 18.398 37.0949 18.7347 37.353 18.884C37.6017 19.0279 37.916 18.9406 38.1243 18.7427C38.2513 18.6221 38.3946 18.5177 38.5509 18.4325C38.8609 18.2637 39.2111 18.1767 39.5665 18.1803C39.922 18.1839 40.2703 18.2779 40.5765 18.4531C40.8828 18.6282 41.1364 18.8782 41.312 19.1782C41.4876 19.4782 41.5791 19.8176 41.5772 20.1627C41.5753 20.5077 41.4803 20.8462 41.3015 21.1444C41.1227 21.4426 40.8664 21.6901 40.5582 21.8621C40.4654 21.9139 40.3688 21.9583 40.2695 21.9951Z" fill="#2A9DDD"/>
<path fill-rule="evenodd" clip-rule="evenodd" d="M30.7412 28.8525C31.9331 28.8525 32.922 29.7174 33.4987 30.7606C33.8384 31.3751 34.2734 31.9436 34.7946 32.4447C36.1762 33.7733 38.0502 34.5197 40.0042 34.5197C41.9582 34.5197 43.8321 33.7733 45.2138 32.4447C45.7348 31.9438 46.1696 31.3756 46.5093 30.7613C47.0863 29.7178 48.0756 28.8525 49.268 28.8525C49.6289 28.8525 49.972 28.9282 50.2825 29.0646C51.2428 29.4864 52.3023 30.0499 53.2789 30.4324C53.3297 30.4524 53.3802 30.4737 53.4305 30.4964L61.0684 33.9535C62.6407 34.6652 63.3001 36.4988 62.5413 38.0489L60.2688 42.6908C59.5099 44.2409 57.6201 44.9206 56.0478 44.2089L55.1034 43.7814C53.5519 43.0792 51.7931 44.2137 51.7931 45.9166V59.7319C51.7931 61.4578 50.394 62.8569 48.6681 62.8569H31.3421C29.6162 62.8569 28.2171 61.4578 28.2171 59.7319V45.9763C28.2171 44.2557 26.4249 43.1216 24.87 43.8582L24.0849 44.2302C22.5251 44.969 20.6234 44.3225 19.8373 42.786L17.4803 38.1793C16.6942 36.6429 17.3214 34.7983 18.8811 34.0595L26.4509 30.4735C26.5374 30.4325 26.6249 30.3958 26.7132 30.3633C27.7104 29.996 28.8002 29.4442 29.7832 29.0407C30.0786 28.9194 30.4021 28.8525 30.7412 28.8525Z" fill="white"/>
<path d="M33.4987 30.7606L33.9362 30.5187L33.4987 30.7606ZM34.7946 32.4447L35.1411 32.0843V32.0843L34.7946 32.4447ZM45.2138 32.4447L45.5604 32.8052V32.8052L45.2138 32.4447ZM46.5093 30.7613L46.9469 31.0033V31.0033L46.5093 30.7613ZM53.4305 30.4964L53.6366 30.0409L53.6366 30.0409L53.4305 30.4964ZM61.0684 33.9535L61.2745 33.498L61.0684 33.9535ZM62.5413 38.0489L62.0922 37.829L62.5413 38.0489ZM60.2688 42.6908L59.8197 42.471V42.471L60.2688 42.6908ZM56.0478 44.2089L56.254 43.7534H56.254L56.0478 44.2089ZM24.0849 44.2302L24.2989 44.682L24.0849 44.2302ZM19.8373 42.786L19.3922 43.0137H19.3922L19.8373 42.786ZM17.4803 38.1793L17.9255 37.9516L17.4803 38.1793ZM18.8811 34.0595L18.667 33.6076H18.667L18.8811 34.0595ZM26.4509 30.4735L26.6649 30.9253L26.4509 30.4735ZM29.7832 29.0407L29.5933 28.5781L29.7832 29.0407ZM24.87 43.8582L25.084 44.3101L24.87 43.8582ZM55.1034 43.7814L54.8972 44.2369L55.1034 43.7814ZM33.9362 30.5187C33.314 29.393 32.1885 28.3525 30.7412 28.3525V29.3525C31.6777 29.3525 32.53 30.0418 33.0611 31.0025L33.9362 30.5187ZM35.1411 32.0843C34.656 31.6178 34.2517 31.0893 33.9362 30.5187L33.0611 31.0025C33.4251 31.661 33.8908 32.2694 34.448 32.8052L35.1411 32.0843ZM40.0042 34.0197C38.1766 34.0197 36.4277 33.3214 35.1411 32.0843L34.448 32.8052C35.9248 34.2252 37.9238 35.0197 40.0042 35.0197V34.0197ZM44.8672 32.0843C43.5807 33.3214 41.8317 34.0197 40.0042 34.0197V35.0197C42.0846 35.0197 44.0835 34.2252 45.5604 32.8052L44.8672 32.0843ZM46.0717 30.5194C45.7564 31.0897 45.3522 31.618 44.8672 32.0843L45.5604 32.8052C46.1173 32.2696 46.5829 31.6615 46.9469 31.0033L46.0717 30.5194ZM49.268 28.3525C47.8202 28.3525 46.6943 29.3934 46.0717 30.5194L46.9469 31.0033C47.4783 30.0422 48.331 29.3525 49.268 29.3525V28.3525ZM50.4836 28.6068C50.111 28.4431 49.6994 28.3525 49.268 28.3525V29.3525C49.5583 29.3525 49.8331 29.4133 50.0815 29.5224L50.4836 28.6068ZM53.0965 30.898C53.1393 30.9148 53.1819 30.9327 53.2243 30.9519L53.6366 30.0409C53.5786 30.0146 53.5201 29.9899 53.4613 29.9669L53.0965 30.898ZM53.2243 30.9519L60.8622 34.4091L61.2745 33.498L53.6366 30.0409L53.2243 30.9519ZM60.8622 34.4091C62.1775 35.0044 62.727 36.5323 62.0922 37.829L62.9903 38.2687C63.8732 36.4653 63.1038 34.326 61.2745 33.498L60.8622 34.4091ZM62.0922 37.829L59.8197 42.471L60.7179 42.9107L62.9903 38.2687L62.0922 37.829ZM59.8197 42.471C59.1797 43.7784 57.5801 44.3537 56.254 43.7534L55.8416 44.6644C57.6602 45.4876 59.8402 44.7035 60.7179 42.9107L59.8197 42.471ZM56.254 43.7534L55.3095 43.3259L54.8972 44.2369L55.8416 44.6644L56.254 43.7534ZM52.2931 59.7319V45.9166H51.2931V59.7319H52.2931ZM48.6681 63.3569C50.6702 63.3569 52.2931 61.734 52.2931 59.7319H51.2931C51.2931 61.1817 50.1179 62.3569 48.6681 62.3569V63.3569ZM31.3421 63.3569H48.6681V62.3569H31.3421V63.3569ZM27.7171 59.7319C27.7171 61.734 29.3401 63.3569 31.3421 63.3569V62.3569C29.8924 62.3569 28.7171 61.1817 28.7171 59.7319H27.7171ZM27.7171 45.9763V59.7319H28.7171V45.9763H27.7171ZM24.2989 44.682L25.084 44.3101L24.6559 43.4064L23.8708 43.7783L24.2989 44.682ZM19.3922 43.0137C20.3014 44.7908 22.495 45.5366 24.2989 44.682L23.8708 43.7783C22.5553 44.4015 20.9455 43.8542 20.2824 42.5583L19.3922 43.0137ZM17.0352 38.4071L19.3922 43.0137L20.2824 42.5583L17.9255 37.9516L17.0352 38.4071ZM18.667 33.6076C16.8523 34.4673 16.1206 36.6195 17.0352 38.4071L17.9255 37.9516C17.2678 36.6663 17.7904 35.1294 19.0951 34.5113L18.667 33.6076ZM26.2368 30.0216L18.667 33.6076L19.0951 34.5113L26.6649 30.9253L26.2368 30.0216ZM26.5404 29.8941C26.4382 29.9318 26.3369 29.9742 26.2368 30.0216L26.6649 30.9253C26.7379 30.8908 26.8117 30.8599 26.886 30.8325L26.5404 29.8941ZM30.7412 28.3525C30.3358 28.3525 29.9479 28.4325 29.5933 28.5781L29.9731 29.5032C30.2093 29.4062 30.4683 29.3525 30.7412 29.3525V28.3525ZM26.886 30.8325C27.4027 30.6422 27.9386 30.4059 28.4589 30.1714C28.985 29.9344 29.4918 29.7008 29.9731 29.5032L29.5933 28.5781C29.0917 28.7841 28.562 29.0281 28.0481 29.2597C27.5285 29.4939 27.0209 29.7171 26.5404 29.8941L26.886 30.8325ZM28.7171 45.9763C28.7171 43.8887 26.5426 42.5126 24.6559 43.4064L25.084 44.3101C26.3073 43.7306 27.7171 44.6228 27.7171 45.9763H28.7171ZM55.3095 43.3259C53.4271 42.4739 51.2931 43.8504 51.2931 45.9166H52.2931C52.2931 44.577 53.6767 43.6845 54.8972 44.2369L55.3095 43.3259ZM50.0815 29.5224C50.5524 29.7292 51.0463 29.9702 51.5596 30.2146C52.0673 30.4564 52.5902 30.6997 53.0965 30.898L53.4613 29.9669C52.9909 29.7826 52.4958 29.5529 51.9896 29.3118C51.489 29.0734 50.973 28.8217 50.4836 28.6068L50.0815 29.5224Z" fill="#2A9DDD"/>
<rect x="32.4801" y="42.8015" width="4.82314" height="5.31369" rx="1.25" fill="#E5F3F8" stroke="#2A9DDD"/>
</svg>
