<svg width="80" height="80" viewBox="0 0 80 80" fill="none" xmlns="http://www.w3.org/2000/svg">
<circle cx="40" cy="40" r="40" fill="#E5F3F8"/>
<rect x="17.1424" y="55.5842" width="45.7143" height="7.27284" rx="3.63642" fill="white" stroke="#2A9DDD"/>
<rect x="-0.405953" y="0.578651" width="11.383" height="3.96502" rx="1.64286" transform="matrix(0.173121 0.984901 -0.985027 0.172401 54.2116 28.6826)" fill="white" stroke="#2A9DDD"/>
<rect x="35.8434" y="27.5321" width="21.1039" height="4.8702" rx="2.4351" fill="white" stroke="#2A9DDD"/>
<path d="M22.6956 42.6756C23.7072 39.8262 26.4033 37.9225 29.4269 37.9225H56.72C58.1863 37.9225 59.4146 39.0324 59.5626 40.4913L60.5116 49.8469C60.6539 51.2497 59.5528 52.4681 58.1428 52.4681H21.2421C20.2554 52.4681 19.5657 51.4915 19.8959 50.5616L22.6956 42.6756Z" fill="white" stroke="#2A9DDD"/>
<ellipse cx="37.4668" cy="44.7409" rx="1.62338" ry="1.6234" fill="#2A9DDD"/>
<ellipse cx="43.9608" cy="44.7409" rx="1.62338" ry="1.6234" fill="#2A9DDD"/>
<ellipse cx="50.4536" cy="44.7409" rx="1.62338" ry="1.6234" fill="#2A9DDD"/>
<path d="M33.2217 31.688C33.2217 33.7096 31.5923 35.3439 29.5878 35.3439C27.5832 35.3439 25.9538 33.7096 25.9538 31.688C25.9538 29.6664 27.5832 28.0321 29.5878 28.0321C31.5923 28.0321 33.2217 29.6664 33.2217 31.688Z" fill="#E5F3F8" stroke="#2A9DDD"/>
<path d="M26.9783 22.3376C26.9783 24.9331 24.8861 27.0325 22.3108 27.0325C19.7355 27.0325 17.6433 24.9331 17.6433 22.3376C17.6433 19.7422 19.7355 17.6428 22.3108 17.6428C24.8861 17.6428 26.9783 19.7422 26.9783 22.3376Z" fill="#E5F3F8" stroke="#2A9DDD"/>
</svg>
