<svg xmlns="http://www.w3.org/2000/svg" xmlns:xlink="http://www.w3.org/1999/xlink" width="424" zoomAndPan="magnify" viewBox="0 0 318 129.000003" height="172" preserveAspectRatio="xMidYMid meet" version="1.0"><defs><g/><clipPath id="47d64f875a"><path d="M 59 12 L 102.4375 12 L 102.4375 127.261719 L 59 127.261719 Z M 59 12 " clip-rule="nonzero"/></clipPath><clipPath id="f416f58116"><path d="M 1.222656 42 L 17 42 L 17 58 L 1.222656 58 Z M 1.222656 42 " clip-rule="nonzero"/></clipPath></defs><g clip-path="url(#47d64f875a)"><path fill="#37bae3" d="M 63.941406 12.316406 C 63.273438 18.117188 61.539062 23.355469 59.15625 28.230469 C 70.496094 43.191406 87.726562 69.785156 87.726562 93.238281 C 87.726562 108.152344 79.199219 121.070312 66.753906 127.394531 C 86.585938 125.953125 102.226562 109.410156 102.226562 89.210938 C 102.226562 54.246094 63.941406 12.316406 63.941406 12.316406 " fill-opacity="1" fill-rule="nonzero"/></g><path fill="#8ce3ff" d="M 62.328125 12.277344 C 56.636719 4.742188 52.359375 0.0546875 52.359375 0.0546875 C 49.96875 20.894531 33.808594 34.402344 23.261719 50.191406 C 36.691406 38.433594 54.214844 29.707031 62.328125 12.277344 " fill-opacity="1" fill-rule="nonzero"/><path fill="#4cd3fe" d="M 28.808594 85.195312 L 32.578125 80.71875 L 32.578125 106.21875 C 38.480469 110.328125 45.648438 112.742188 53.371094 112.742188 C 57.863281 112.742188 62.253906 111.917969 66.351562 110.355469 L 66.351562 80.71875 L 70.121094 85.195312 L 80.988281 75.246094 L 72.632812 61.296875 L 59.140625 54.054688 C 55.917969 56.847656 52.691406 58.230469 49.464844 58.203125 C 46.238281 58.230469 43.011719 56.847656 39.789062 54.054688 L 26.300781 61.296875 L 17.941406 75.246094 L 28.808594 85.195312 " fill-opacity="1" fill-rule="nonzero"/><path fill="#4cd3fe" d="M 53.371094 114.554688 C 32.226562 114.554688 15.085938 97.414062 15.085938 76.269531 C 15.085938 69.515625 16.75 63.53125 19.390625 57.976562 C 13.304688 66.566406 8.640625 75.710938 8.640625 87.011719 C 8.640625 108.15625 25.78125 125.296875 46.925781 125.296875 C 63.117188 125.296875 76.960938 115.246094 82.558594 101.042969 C 75.535156 109.308594 65.066406 114.554688 53.371094 114.554688 " fill-opacity="1" fill-rule="nonzero"/><path fill="#a6e9ff" d="M 31.84375 22.410156 C 20.460938 27.023438 19.773438 28.277344 21.988281 40.355469 C 17.375 28.972656 16.121094 28.285156 4.042969 30.503906 C 15.421875 25.890625 16.113281 24.636719 13.894531 12.554688 C 18.507812 23.9375 19.761719 24.625 31.84375 22.410156 " fill-opacity="1" fill-rule="nonzero"/><g clip-path="url(#f416f58116)"><path fill="#a6e9ff" d="M 16.058594 48.03125 C 9.984375 50.492188 9.617188 51.160156 10.800781 57.605469 C 8.339844 51.535156 7.671875 51.167969 1.226562 52.351562 C 7.296875 49.890625 7.664062 49.21875 6.480469 42.777344 C 8.945312 48.847656 9.613281 49.214844 16.058594 48.03125 " fill-opacity="1" fill-rule="nonzero"/></g><path fill="#a6e9ff" d="M 56.820312 46.421875 C 51.957031 45.289062 51.433594 45.546875 49.34375 50.082031 C 50.476562 45.21875 50.21875 44.699219 45.683594 42.609375 C 50.546875 43.738281 51.070312 43.480469 53.160156 38.945312 C 52.03125 43.808594 52.285156 44.332031 56.820312 46.421875 " fill-opacity="1" fill-rule="nonzero"/><g fill="#37bae3" fill-opacity="1"><g transform="translate(117.422859, 72.23705)"><g><path d="M 19.640625 -23.40625 C 19.640625 -21.570312 18.570312 -20.65625 16.4375 -20.65625 C 15.4375 -20.6875 14.367188 -20.703125 13.234375 -20.703125 C 12.097656 -20.703125 10.976562 -20.710938 9.875 -20.734375 L 9.875 -14.96875 C 10.757812 -14.988281 11.628906 -15 12.484375 -15 C 13.335938 -15 14.175781 -15.015625 15 -15.046875 C 17.132812 -15.046875 18.203125 -14.203125 18.203125 -12.515625 C 18.203125 -10.804688 17.132812 -9.953125 15 -9.953125 C 14.175781 -9.972656 13.335938 -9.984375 12.484375 -9.984375 C 11.628906 -9.984375 10.757812 -10 9.875 -10.03125 C 9.875 -8.894531 9.875 -7.757812 9.875 -6.625 C 9.875 -5.5 9.875 -4.359375 9.875 -3.203125 C 9.90625 -2.171875 9.640625 -1.378906 9.078125 -0.828125 C 8.523438 -0.273438 7.738281 0 6.71875 0 L 6.03125 0 C 5 0 4.207031 -0.273438 3.65625 -0.828125 C 3.101562 -1.378906 2.835938 -2.171875 2.859375 -3.203125 C 2.859375 -4.859375 2.863281 -6.507812 2.875 -8.15625 C 2.894531 -9.800781 2.90625 -11.441406 2.90625 -13.078125 C 2.90625 -14.710938 2.894531 -16.351562 2.875 -18 C 2.863281 -19.644531 2.859375 -21.285156 2.859375 -22.921875 C 2.835938 -23.953125 3.101562 -24.742188 3.65625 -25.296875 C 4.207031 -25.847656 5 -26.125 6.03125 -26.125 L 16.4375 -26.125 C 18.570312 -26.125 19.640625 -25.21875 19.640625 -23.40625 Z M 19.640625 -23.40625 "/></g></g></g><g fill="#37bae3" fill-opacity="1"><g transform="translate(138.610258, 72.23705)"><g><path d="M 14.171875 -21.15625 C 14.523438 -21.070312 14.890625 -20.878906 15.265625 -20.578125 C 15.640625 -20.285156 15.957031 -19.773438 16.21875 -19.046875 C 16.34375 -18.617188 16.40625 -18.175781 16.40625 -17.71875 C 16.40625 -17.269531 16.34375 -16.832031 16.21875 -16.40625 C 15.957031 -15.425781 15.578125 -14.773438 15.078125 -14.453125 C 14.578125 -14.140625 14.085938 -14.070312 13.609375 -14.25 C 13.128906 -14.40625 12.628906 -14.484375 12.109375 -14.484375 C 10.472656 -14.484375 9.300781 -13.4375 8.59375 -11.34375 L 8.59375 -10.4375 C 8.59375 -10.039062 8.585938 -9.628906 8.578125 -9.203125 C 8.566406 -8.773438 8.5625 -8.359375 8.5625 -7.953125 C 8.5625 -7.171875 8.566406 -6.394531 8.578125 -5.625 C 8.585938 -4.863281 8.609375 -4.082031 8.640625 -3.28125 C 8.710938 -1.09375 7.664062 0 5.5 0 L 5.390625 0 C 3.253906 0 2.1875 -1.066406 2.1875 -3.203125 C 2.207031 -4.410156 2.222656 -5.609375 2.234375 -6.796875 C 2.253906 -7.992188 2.265625 -9.207031 2.265625 -10.4375 C 2.265625 -11.695312 2.253906 -12.914062 2.234375 -14.09375 C 2.222656 -15.28125 2.207031 -16.476562 2.1875 -17.6875 C 2.1875 -19.820312 3.203125 -20.890625 5.234375 -20.890625 C 7.273438 -20.890625 8.296875 -20.082031 8.296875 -18.46875 L 8.296875 -16.03125 L 8.40625 -15.953125 C 8.707031 -17.503906 9.28125 -18.769531 10.125 -19.75 C 10.96875 -20.738281 12.003906 -21.234375 13.234375 -21.234375 C 13.429688 -21.234375 13.613281 -21.222656 13.78125 -21.203125 C 13.945312 -21.191406 14.078125 -21.175781 14.171875 -21.15625 Z M 14.171875 -21.15625 "/></g></g></g><g fill="#37bae3" fill-opacity="1"><g transform="translate(155.04745, 72.23705)"><g><path d="M 11.078125 0.375 C 7.710938 0.375 5.25 -0.546875 3.6875 -2.390625 C 2.132812 -4.242188 1.359375 -7.03125 1.359375 -10.75 C 1.359375 -17.707031 4.597656 -21.1875 11.078125 -21.1875 C 13.421875 -21.1875 15.300781 -20.695312 16.71875 -19.71875 C 18.132812 -18.738281 19.125 -17.363281 19.6875 -15.59375 C 20.257812 -13.820312 20.421875 -11.765625 20.171875 -9.421875 C 20.117188 -9.023438 19.929688 -8.828125 19.609375 -8.828125 L 7.578125 -8.828125 C 7.628906 -7.546875 7.8125 -6.550781 8.125 -5.84375 C 8.4375 -5.132812 8.847656 -4.648438 9.359375 -4.390625 C 9.878906 -4.128906 10.46875 -4 11.125 -4 C 12.101562 -4 12.878906 -4.160156 13.453125 -4.484375 C 13.929688 -4.816406 14.300781 -5.128906 14.5625 -5.421875 C 14.832031 -5.722656 15.117188 -5.972656 15.421875 -6.171875 C 15.722656 -6.378906 16.140625 -6.484375 16.671875 -6.484375 C 17.648438 -6.484375 18.425781 -6.238281 19 -5.75 C 19.582031 -5.257812 19.734375 -4.585938 19.453125 -3.734375 C 18.578125 -0.992188 15.785156 0.375 11.078125 0.375 Z M 7.609375 -12.359375 L 13.796875 -12.359375 C 13.847656 -13.867188 13.632812 -15 13.15625 -15.75 C 12.675781 -16.507812 11.882812 -16.890625 10.78125 -16.890625 C 9.800781 -16.890625 9.019531 -16.519531 8.4375 -15.78125 C 7.863281 -15.039062 7.585938 -13.898438 7.609375 -12.359375 Z M 7.609375 -12.359375 "/></g></g></g><g fill="#37bae3" fill-opacity="1"><g transform="translate(176.838049, 72.23705)"><g><path d="M 10.03125 0.453125 C 7.59375 0.453125 5.710938 0.113281 4.390625 -0.5625 C 3.066406 -1.238281 2.191406 -2.234375 1.765625 -3.546875 C 1.441406 -4.578125 1.554688 -5.378906 2.109375 -5.953125 C 2.660156 -6.535156 3.378906 -6.828125 4.265625 -6.828125 L 4.375 -6.828125 C 4.976562 -6.828125 5.429688 -6.722656 5.734375 -6.515625 C 6.035156 -6.316406 6.304688 -6.035156 6.546875 -5.671875 C 6.785156 -5.304688 7.078125 -4.882812 7.421875 -4.40625 C 7.773438 -3.957031 8.554688 -3.734375 9.765625 -3.734375 C 10.941406 -3.734375 11.769531 -3.921875 12.25 -4.296875 C 12.726562 -4.671875 12.96875 -5.132812 12.96875 -5.6875 C 12.96875 -6.394531 12.757812 -6.921875 12.34375 -7.265625 C 11.925781 -7.617188 11.382812 -7.882812 10.71875 -8.0625 C 10.0625 -8.238281 9.328125 -8.390625 8.515625 -8.515625 C 7.710938 -8.640625 6.898438 -8.800781 6.078125 -9 C 5.265625 -9.207031 4.523438 -9.519531 3.859375 -9.9375 C 3.191406 -10.351562 2.648438 -10.945312 2.234375 -11.71875 C 1.828125 -12.5 1.625 -13.519531 1.625 -14.78125 C 1.625 -19.050781 4.578125 -21.1875 10.484375 -21.1875 C 14.984375 -21.1875 17.644531 -19.867188 18.46875 -17.234375 C 18.769531 -16.222656 18.644531 -15.4375 18.09375 -14.875 C 17.539062 -14.3125 16.828125 -14.03125 15.953125 -14.03125 L 15.796875 -14.03125 C 15.222656 -14.03125 14.773438 -14.125 14.453125 -14.3125 C 14.140625 -14.5 13.863281 -14.757812 13.625 -15.09375 C 13.382812 -15.4375 13.078125 -15.820312 12.703125 -16.25 C 12.304688 -16.65625 11.566406 -16.859375 10.484375 -16.859375 C 9.472656 -16.859375 8.78125 -16.691406 8.40625 -16.359375 C 8.03125 -16.035156 7.84375 -15.582031 7.84375 -15 C 7.84375 -14.25 8.117188 -13.695312 8.671875 -13.34375 C 9.222656 -12.988281 9.925781 -12.742188 10.78125 -12.609375 C 11.632812 -12.472656 12.550781 -12.328125 13.53125 -12.171875 C 14.507812 -12.023438 15.425781 -11.773438 16.28125 -11.421875 C 17.132812 -11.066406 17.835938 -10.503906 18.390625 -9.734375 C 18.953125 -8.972656 19.234375 -7.898438 19.234375 -6.515625 C 19.234375 -4.203125 18.453125 -2.460938 16.890625 -1.296875 C 15.328125 -0.128906 13.039062 0.453125 10.03125 0.453125 Z M 10.03125 0.453125 "/></g></g></g><g fill="#37bae3" fill-opacity="1"><g transform="translate(197.497641, 72.23705)"><g><path d="M 20.78125 -3.25 C 20.78125 -1.082031 19.707031 0 17.5625 0 L 17.453125 0 C 15.316406 0 14.25 -1.082031 14.25 -3.25 C 14.28125 -4.976562 14.300781 -6.628906 14.3125 -8.203125 C 14.320312 -9.773438 14.328125 -11.210938 14.328125 -12.515625 C 14.328125 -13.742188 14.113281 -14.597656 13.6875 -15.078125 C 13.257812 -15.554688 12.617188 -15.785156 11.765625 -15.765625 C 10.273438 -15.710938 9.21875 -14.957031 8.59375 -13.5 C 8.570312 -11.738281 8.566406 -10.007812 8.578125 -8.3125 C 8.585938 -6.613281 8.609375 -4.910156 8.640625 -3.203125 C 8.640625 -1.066406 7.566406 0 5.421875 0 L 5.171875 0 C 3.023438 0 1.953125 -1.066406 1.953125 -3.203125 C 1.984375 -5.015625 2.007812 -6.8125 2.03125 -8.59375 C 2.0625 -10.375 2.078125 -12.195312 2.078125 -14.0625 C 2.078125 -15.769531 2.0625 -17.441406 2.03125 -19.078125 C 2.007812 -20.710938 1.984375 -22.382812 1.953125 -24.09375 C 1.953125 -26.226562 3.023438 -27.296875 5.171875 -27.296875 L 5.421875 -27.296875 C 7.535156 -27.296875 8.59375 -26.441406 8.59375 -24.734375 C 8.59375 -24.253906 8.59375 -23.796875 8.59375 -23.359375 C 8.59375 -22.921875 8.59375 -22.550781 8.59375 -22.25 C 8.59375 -21.394531 8.578125 -20.5625 8.546875 -19.75 C 8.523438 -18.945312 8.453125 -18.15625 8.328125 -17.375 L 8.375 -17.3125 C 9.101562 -18.632812 10.015625 -19.609375 11.109375 -20.234375 C 12.203125 -20.867188 13.476562 -21.1875 14.9375 -21.1875 C 16.914062 -21.1875 18.394531 -20.503906 19.375 -19.140625 C 20.351562 -17.785156 20.804688 -15.550781 20.734375 -12.4375 C 20.710938 -11.132812 20.707031 -9.703125 20.71875 -8.140625 C 20.726562 -6.585938 20.75 -4.957031 20.78125 -3.25 Z M 20.78125 -3.25 "/></g></g></g><g fill="#37bae3" fill-opacity="1"><g transform="translate(220.456937, 72.23705)"><g><path d="M 19.984375 -26.125 C 22.046875 -26.125 23.050781 -25.054688 23 -22.921875 C 22.976562 -16.359375 22.976562 -9.785156 23 -3.203125 C 23.019531 -2.171875 22.753906 -1.378906 22.203125 -0.828125 C 21.648438 -0.273438 20.859375 0 19.828125 0 L 19.265625 0 C 17.503906 0 16.25 -0.789062 15.5 -2.375 L 8.21875 -17.5 L 8.140625 -17.5 C 8.191406 -14.832031 8.265625 -12.367188 8.359375 -10.109375 C 8.460938 -7.847656 8.59375 -5.582031 8.75 -3.3125 C 8.875 -1.101562 7.914062 0 5.875 0 C 4.894531 0 4.140625 -0.273438 3.609375 -0.828125 C 3.085938 -1.378906 2.835938 -2.171875 2.859375 -3.203125 C 2.890625 -9.785156 2.890625 -16.359375 2.859375 -22.921875 C 2.835938 -23.953125 3.101562 -24.742188 3.65625 -25.296875 C 4.207031 -25.847656 5 -26.125 6.03125 -26.125 L 7.953125 -26.125 C 9.710938 -26.125 10.96875 -25.332031 11.71875 -23.75 L 17.609375 -11.5 L 17.6875 -11.5 C 17.632812 -13.5625 17.554688 -15.519531 17.453125 -17.375 C 17.359375 -19.238281 17.242188 -21.050781 17.109375 -22.8125 C 16.960938 -25.019531 17.921875 -26.125 19.984375 -26.125 Z M 19.984375 -26.125 "/></g></g></g><g fill="#37bae3" fill-opacity="1"><g transform="translate(246.319127, 72.23705)"><g><path d="M 11.078125 0.375 C 7.710938 0.375 5.25 -0.546875 3.6875 -2.390625 C 2.132812 -4.242188 1.359375 -7.03125 1.359375 -10.75 C 1.359375 -17.707031 4.597656 -21.1875 11.078125 -21.1875 C 13.421875 -21.1875 15.300781 -20.695312 16.71875 -19.71875 C 18.132812 -18.738281 19.125 -17.363281 19.6875 -15.59375 C 20.257812 -13.820312 20.421875 -11.765625 20.171875 -9.421875 C 20.117188 -9.023438 19.929688 -8.828125 19.609375 -8.828125 L 7.578125 -8.828125 C 7.628906 -7.546875 7.8125 -6.550781 8.125 -5.84375 C 8.4375 -5.132812 8.847656 -4.648438 9.359375 -4.390625 C 9.878906 -4.128906 10.46875 -4 11.125 -4 C 12.101562 -4 12.878906 -4.160156 13.453125 -4.484375 C 13.929688 -4.816406 14.300781 -5.128906 14.5625 -5.421875 C 14.832031 -5.722656 15.117188 -5.972656 15.421875 -6.171875 C 15.722656 -6.378906 16.140625 -6.484375 16.671875 -6.484375 C 17.648438 -6.484375 18.425781 -6.238281 19 -5.75 C 19.582031 -5.257812 19.734375 -4.585938 19.453125 -3.734375 C 18.578125 -0.992188 15.785156 0.375 11.078125 0.375 Z M 7.609375 -12.359375 L 13.796875 -12.359375 C 13.847656 -13.867188 13.632812 -15 13.15625 -15.75 C 12.675781 -16.507812 11.882812 -16.890625 10.78125 -16.890625 C 9.800781 -16.890625 9.019531 -16.519531 8.4375 -15.78125 C 7.863281 -15.039062 7.585938 -13.898438 7.609375 -12.359375 Z M 7.609375 -12.359375 "/></g></g></g><g fill="#37bae3" fill-opacity="1"><g transform="translate(268.109725, 72.23705)"><g><path d="M 10.03125 0.453125 C 7.59375 0.453125 5.710938 0.113281 4.390625 -0.5625 C 3.066406 -1.238281 2.191406 -2.234375 1.765625 -3.546875 C 1.441406 -4.578125 1.554688 -5.378906 2.109375 -5.953125 C 2.660156 -6.535156 3.378906 -6.828125 4.265625 -6.828125 L 4.375 -6.828125 C 4.976562 -6.828125 5.429688 -6.722656 5.734375 -6.515625 C 6.035156 -6.316406 6.304688 -6.035156 6.546875 -5.671875 C 6.785156 -5.304688 7.078125 -4.882812 7.421875 -4.40625 C 7.773438 -3.957031 8.554688 -3.734375 9.765625 -3.734375 C 10.941406 -3.734375 11.769531 -3.921875 12.25 -4.296875 C 12.726562 -4.671875 12.96875 -5.132812 12.96875 -5.6875 C 12.96875 -6.394531 12.757812 -6.921875 12.34375 -7.265625 C 11.925781 -7.617188 11.382812 -7.882812 10.71875 -8.0625 C 10.0625 -8.238281 9.328125 -8.390625 8.515625 -8.515625 C 7.710938 -8.640625 6.898438 -8.800781 6.078125 -9 C 5.265625 -9.207031 4.523438 -9.519531 3.859375 -9.9375 C 3.191406 -10.351562 2.648438 -10.945312 2.234375 -11.71875 C 1.828125 -12.5 1.625 -13.519531 1.625 -14.78125 C 1.625 -19.050781 4.578125 -21.1875 10.484375 -21.1875 C 14.984375 -21.1875 17.644531 -19.867188 18.46875 -17.234375 C 18.769531 -16.222656 18.644531 -15.4375 18.09375 -14.875 C 17.539062 -14.3125 16.828125 -14.03125 15.953125 -14.03125 L 15.796875 -14.03125 C 15.222656 -14.03125 14.773438 -14.125 14.453125 -14.3125 C 14.140625 -14.5 13.863281 -14.757812 13.625 -15.09375 C 13.382812 -15.4375 13.078125 -15.820312 12.703125 -16.25 C 12.304688 -16.65625 11.566406 -16.859375 10.484375 -16.859375 C 9.472656 -16.859375 8.78125 -16.691406 8.40625 -16.359375 C 8.03125 -16.035156 7.84375 -15.582031 7.84375 -15 C 7.84375 -14.25 8.117188 -13.695312 8.671875 -13.34375 C 9.222656 -12.988281 9.925781 -12.742188 10.78125 -12.609375 C 11.632812 -12.472656 12.550781 -12.328125 13.53125 -12.171875 C 14.507812 -12.023438 15.425781 -11.773438 16.28125 -11.421875 C 17.132812 -11.066406 17.835938 -10.503906 18.390625 -9.734375 C 18.953125 -8.972656 19.234375 -7.898438 19.234375 -6.515625 C 19.234375 -4.203125 18.453125 -2.460938 16.890625 -1.296875 C 15.328125 -0.128906 13.039062 0.453125 10.03125 0.453125 Z M 10.03125 0.453125 "/></g></g></g><g fill="#37bae3" fill-opacity="1"><g transform="translate(288.769317, 72.23705)"><g><path d="M 11.953125 -4.5625 C 13.054688 -4.613281 13.910156 -4.554688 14.515625 -4.390625 C 15.117188 -4.222656 15.457031 -3.753906 15.53125 -2.984375 C 15.601562 -2.171875 15.46875 -1.472656 15.125 -0.890625 C 14.789062 -0.316406 14.210938 0.0507812 13.390625 0.21875 C 12.628906 0.375 11.796875 0.453125 10.890625 0.453125 C 9.335938 0.453125 7.988281 0.210938 6.84375 -0.265625 C 5.695312 -0.742188 4.816406 -1.519531 4.203125 -2.59375 C 3.585938 -3.675781 3.289062 -5.132812 3.3125 -6.96875 C 3.34375 -8.082031 3.359375 -9.238281 3.359375 -10.4375 C 3.359375 -11.644531 3.359375 -12.851562 3.359375 -14.0625 L 3.359375 -16.03125 L 3.3125 -16.03125 C 1.175781 -16.03125 0.109375 -16.832031 0.109375 -18.4375 C 0.109375 -20.039062 0.648438 -20.84375 1.734375 -20.84375 L 3.3125 -20.84375 C 3.3125 -21.175781 3.304688 -21.492188 3.296875 -21.796875 C 3.285156 -22.097656 3.28125 -22.410156 3.28125 -22.734375 C 3.28125 -24.597656 4.160156 -25.804688 5.921875 -26.359375 C 6.972656 -26.703125 7.816406 -26.671875 8.453125 -26.265625 C 9.097656 -25.867188 9.421875 -25.171875 9.421875 -24.171875 L 9.421875 -20.84375 L 12.0625 -20.84375 C 14.195312 -20.84375 15.265625 -20.050781 15.265625 -18.46875 C 15.265625 -16.882812 14.296875 -16.09375 12.359375 -16.09375 L 9.421875 -16.0625 C 9.421875 -15.738281 9.414062 -15.410156 9.40625 -15.078125 C 9.394531 -14.753906 9.390625 -14.414062 9.390625 -14.0625 C 9.359375 -12.976562 9.34375 -11.894531 9.34375 -10.8125 C 9.34375 -9.738281 9.34375 -8.710938 9.34375 -7.734375 C 9.34375 -5.597656 10.210938 -4.539062 11.953125 -4.5625 Z M 11.953125 -4.5625 "/></g></g></g><g fill="#37bae3" fill-opacity="1"><g transform="translate(120.883809, 95.903573)"><g><path d="M 2.25 0 C 1.5625 0 1.21875 -0.347656 1.21875 -1.046875 L 1.21875 -10.203125 C 1.21875 -10.890625 1.554688 -11.234375 2.234375 -11.234375 C 2.910156 -11.234375 3.25 -10.890625 3.25 -10.203125 L 3.25 -1.734375 L 7.859375 -1.734375 C 8.453125 -1.734375 8.75 -1.445312 8.75 -0.875 C 8.75 -0.289062 8.453125 0 7.859375 0 Z M 2.25 0 "/></g></g></g><g fill="#37bae3" fill-opacity="1"><g transform="translate(138.028804, 95.903573)"><g><path d="M 1.328125 0.125 C 0.960938 0.125 0.695312 0 0.53125 -0.25 C 0.375 -0.507812 0.382812 -0.816406 0.5625 -1.171875 L 4.75 -10.46875 C 4.882812 -10.769531 5.050781 -10.984375 5.25 -11.109375 C 5.445312 -11.242188 5.671875 -11.3125 5.921875 -11.3125 C 6.160156 -11.3125 6.378906 -11.242188 6.578125 -11.109375 C 6.773438 -10.984375 6.941406 -10.769531 7.078125 -10.46875 L 11.28125 -1.171875 C 11.457031 -0.804688 11.46875 -0.5 11.3125 -0.25 C 11.164062 0 10.914062 0.125 10.5625 0.125 C 10.257812 0.125 10.023438 0.0546875 9.859375 -0.078125 C 9.703125 -0.222656 9.5625 -0.445312 9.4375 -0.75 L 8.640625 -2.59375 L 3.171875 -2.59375 L 2.390625 -0.75 C 2.253906 -0.4375 2.113281 -0.210938 1.96875 -0.078125 C 1.820312 0.0546875 1.609375 0.125 1.328125 0.125 Z M 5.890625 -8.984375 L 3.875 -4.203125 L 7.9375 -4.203125 L 5.921875 -8.984375 Z M 5.890625 -8.984375 "/></g></g></g><g fill="#37bae3" fill-opacity="1"><g transform="translate(158.062712, 95.903573)"><g><path d="M 5.875 0.15625 C 4.34375 0.15625 3.171875 -0.238281 2.359375 -1.03125 C 1.546875 -1.832031 1.140625 -3.019531 1.140625 -4.59375 L 1.140625 -10.28125 C 1.140625 -10.96875 1.476562 -11.3125 2.15625 -11.3125 C 2.832031 -11.3125 3.171875 -10.96875 3.171875 -10.28125 L 3.171875 -4.609375 C 3.171875 -3.597656 3.398438 -2.84375 3.859375 -2.34375 C 4.328125 -1.84375 5 -1.59375 5.875 -1.59375 C 7.664062 -1.59375 8.5625 -2.597656 8.5625 -4.609375 L 8.5625 -10.28125 C 8.5625 -10.96875 8.898438 -11.3125 9.578125 -11.3125 C 10.242188 -11.3125 10.578125 -10.96875 10.578125 -10.28125 L 10.578125 -4.59375 C 10.578125 -3.019531 10.175781 -1.832031 9.375 -1.03125 C 8.582031 -0.238281 7.414062 0.15625 5.875 0.15625 Z M 5.875 0.15625 "/></g></g></g><g fill="#37bae3" fill-opacity="1"><g transform="translate(178.001379, 95.903573)"><g><path d="M 2.171875 0.125 C 1.535156 0.125 1.21875 -0.203125 1.21875 -0.859375 L 1.21875 -10.296875 C 1.21875 -10.628906 1.300781 -10.878906 1.46875 -11.046875 C 1.632812 -11.222656 1.847656 -11.3125 2.109375 -11.3125 C 2.347656 -11.3125 2.53125 -11.265625 2.65625 -11.171875 C 2.78125 -11.085938 2.925781 -10.941406 3.09375 -10.734375 L 8.765625 -3.375 L 8.765625 -10.34375 C 8.765625 -10.988281 9.082031 -11.3125 9.71875 -11.3125 C 10.34375 -11.3125 10.65625 -10.988281 10.65625 -10.34375 L 10.65625 -0.828125 C 10.65625 -0.523438 10.578125 -0.289062 10.421875 -0.125 C 10.273438 0.0390625 10.078125 0.125 9.828125 0.125 C 9.585938 0.125 9.394531 0.078125 9.25 -0.015625 C 9.101562 -0.109375 8.945312 -0.257812 8.78125 -0.46875 L 3.109375 -7.84375 L 3.109375 -0.859375 C 3.109375 -0.203125 2.796875 0.125 2.171875 0.125 Z M 2.171875 0.125 "/></g></g></g><g fill="#37bae3" fill-opacity="1"><g transform="translate(198.098778, 95.903573)"><g><path d="M 2.296875 0 C 1.578125 0 1.21875 -0.359375 1.21875 -1.078125 L 1.21875 -10.109375 C 1.21875 -10.828125 1.578125 -11.1875 2.296875 -11.1875 L 5.375 -11.1875 C 7.25 -11.1875 8.695312 -10.703125 9.71875 -9.734375 C 10.738281 -8.773438 11.25 -7.398438 11.25 -5.609375 C 11.25 -3.816406 10.738281 -2.429688 9.71875 -1.453125 C 8.695312 -0.484375 7.25 0 5.375 0 Z M 3.25 -1.6875 L 5.25 -1.6875 C 7.832031 -1.6875 9.125 -2.992188 9.125 -5.609375 C 9.125 -8.210938 7.832031 -9.515625 5.25 -9.515625 L 3.25 -9.515625 Z M 3.25 -1.6875 "/></g></g></g><g fill="#37bae3" fill-opacity="1"><g transform="translate(218.418398, 95.903573)"><g><path d="M 2.234375 0.125 C 1.554688 0.125 1.21875 -0.222656 1.21875 -0.921875 L 1.21875 -10.15625 C 1.21875 -10.84375 1.5625 -11.1875 2.25 -11.1875 L 6.078125 -11.1875 C 7.304688 -11.1875 8.253906 -10.894531 8.921875 -10.3125 C 9.585938 -9.726562 9.921875 -8.90625 9.921875 -7.84375 C 9.921875 -7.007812 9.703125 -6.316406 9.265625 -5.765625 C 8.835938 -5.222656 8.210938 -4.859375 7.390625 -4.671875 C 7.929688 -4.492188 8.378906 -4.082031 8.734375 -3.4375 L 9.921875 -1.234375 C 10.097656 -0.898438 10.128906 -0.585938 10.015625 -0.296875 C 9.910156 -0.015625 9.640625 0.125 9.203125 0.125 C 8.921875 0.125 8.6875 0.0664062 8.5 -0.046875 C 8.320312 -0.171875 8.164062 -0.363281 8.03125 -0.625 L 6.421875 -3.578125 C 6.234375 -3.929688 6.007812 -4.171875 5.75 -4.296875 C 5.488281 -4.421875 5.160156 -4.484375 4.765625 -4.484375 L 3.25 -4.484375 L 3.25 -0.921875 C 3.25 -0.222656 2.910156 0.125 2.234375 0.125 Z M 3.25 -5.984375 L 5.734375 -5.984375 C 7.210938 -5.984375 7.953125 -6.585938 7.953125 -7.796875 C 7.953125 -8.992188 7.210938 -9.59375 5.734375 -9.59375 L 3.25 -9.59375 Z M 3.25 -5.984375 "/></g></g></g><g fill="#37bae3" fill-opacity="1"><g transform="translate(237.531658, 95.903573)"><g><path d="M 4.90625 0.125 C 4.226562 0.125 3.890625 -0.226562 3.890625 -0.9375 L 3.890625 -5.140625 L 0.484375 -9.921875 C 0.347656 -10.109375 0.285156 -10.3125 0.296875 -10.53125 C 0.316406 -10.75 0.40625 -10.929688 0.5625 -11.078125 C 0.726562 -11.234375 0.953125 -11.3125 1.234375 -11.3125 C 1.648438 -11.3125 2.007812 -11.097656 2.3125 -10.671875 L 4.9375 -6.953125 L 7.578125 -10.671875 C 7.742188 -10.898438 7.90625 -11.0625 8.0625 -11.15625 C 8.21875 -11.257812 8.414062 -11.3125 8.65625 -11.3125 C 9.0625 -11.3125 9.332031 -11.160156 9.46875 -10.859375 C 9.601562 -10.566406 9.546875 -10.25 9.296875 -9.90625 L 5.921875 -5.125 L 5.921875 -0.9375 C 5.921875 -0.226562 5.582031 0.125 4.90625 0.125 Z M 4.90625 0.125 "/></g></g></g></svg>