<svg width="240" height="240" viewBox="0 0 240 240" fill="none" xmlns="http://www.w3.org/2000/svg">
<rect x="32.2751" y="225.379" width="199.724" height="6.6207" rx="3.31035" fill="#E5F3F8"/>
<rect x="50.9998" y="8" width="163" height="209" rx="16.5517" fill="white" stroke="#2A9DDD"/>
<rect x="67.9998" y="36" width="130" height="164" rx="11.0345" fill="#E5F3F8" stroke="#2A9DDD"/>
<rect x="151.948" y="16.5" width="11" height="22.1724" rx="5.5" transform="rotate(90 151.948 16.5)" fill="#E5F3F8" stroke="#2A9DDD"/>
<rect x="124.5" y="16.5" width="11" height="11" rx="5.5" transform="rotate(90 124.5 16.5)" fill="#E5F3F8" stroke="#2A9DDD"/>
<rect x="102.292" y="107.741" width="60.7932" height="21.069" rx="10.5345" fill="white" stroke="#2A9DDD"/>
<path d="M117.252 116.516C117.451 116.17 117.745 115.883 118.135 115.655C118.532 115.42 118.992 115.302 119.514 115.302C120.051 115.302 120.537 115.431 120.971 115.688C121.412 115.946 121.758 116.31 122.008 116.781C122.258 117.244 122.383 117.785 122.383 118.403C122.383 119.013 122.258 119.558 122.008 120.036C121.758 120.514 121.412 120.885 120.971 121.15C120.537 121.415 120.051 121.548 119.514 121.548C118.999 121.548 118.543 121.433 118.146 121.205C117.756 120.97 117.458 120.679 117.252 120.334V124.317H116.248V115.401H117.252V116.516ZM121.357 118.403C121.357 117.947 121.265 117.549 121.081 117.211C120.897 116.873 120.647 116.615 120.331 116.439C120.022 116.262 119.68 116.174 119.304 116.174C118.937 116.174 118.595 116.266 118.278 116.45C117.969 116.626 117.719 116.887 117.528 117.233C117.344 117.571 117.252 117.965 117.252 118.414C117.252 118.87 117.344 119.271 117.528 119.616C117.719 119.955 117.969 120.216 118.278 120.4C118.595 120.576 118.937 120.665 119.304 120.665C119.68 120.665 120.022 120.576 120.331 120.4C120.647 120.216 120.897 119.955 121.081 119.616C121.265 119.271 121.357 118.866 121.357 118.403ZM129.222 118.193C129.222 118.384 129.211 118.587 129.189 118.8H124.356C124.393 119.396 124.595 119.863 124.963 120.201C125.338 120.532 125.79 120.698 126.32 120.698C126.754 120.698 127.114 120.599 127.401 120.4C127.696 120.194 127.902 119.922 128.019 119.583H129.101C128.939 120.165 128.615 120.639 128.13 121.007C127.644 121.367 127.041 121.548 126.32 121.548C125.746 121.548 125.231 121.419 124.775 121.161C124.326 120.904 123.973 120.54 123.716 120.069C123.458 119.591 123.33 119.039 123.33 118.414C123.33 117.788 123.455 117.24 123.705 116.77C123.955 116.299 124.304 115.938 124.753 115.688C125.209 115.431 125.731 115.302 126.32 115.302C126.894 115.302 127.401 115.427 127.843 115.677C128.284 115.927 128.623 116.273 128.858 116.714C129.101 117.148 129.222 117.641 129.222 118.193ZM128.185 117.983C128.185 117.601 128.1 117.273 127.931 117.001C127.762 116.722 127.53 116.512 127.236 116.372C126.949 116.225 126.629 116.152 126.276 116.152C125.768 116.152 125.334 116.313 124.974 116.637C124.621 116.961 124.418 117.41 124.367 117.983H128.185ZM132.688 121.548C132.225 121.548 131.809 121.47 131.441 121.316C131.073 121.154 130.783 120.933 130.57 120.654C130.356 120.367 130.239 120.039 130.216 119.672H131.254C131.283 119.973 131.423 120.22 131.673 120.411C131.93 120.602 132.265 120.698 132.677 120.698C133.06 120.698 133.361 120.613 133.582 120.444C133.803 120.275 133.913 120.062 133.913 119.804C133.913 119.539 133.795 119.344 133.56 119.219C133.325 119.087 132.96 118.958 132.468 118.833C132.019 118.715 131.651 118.598 131.364 118.48C131.085 118.355 130.842 118.175 130.636 117.939C130.437 117.696 130.338 117.38 130.338 116.99C130.338 116.681 130.43 116.398 130.614 116.141C130.798 115.883 131.059 115.681 131.397 115.534C131.736 115.379 132.122 115.302 132.556 115.302C133.225 115.302 133.766 115.471 134.178 115.81C134.59 116.148 134.81 116.611 134.84 117.2H133.836C133.814 116.884 133.685 116.63 133.45 116.439C133.222 116.247 132.913 116.152 132.523 116.152C132.162 116.152 131.875 116.229 131.662 116.383C131.449 116.538 131.342 116.74 131.342 116.99C131.342 117.189 131.405 117.354 131.53 117.487C131.662 117.612 131.824 117.715 132.015 117.796C132.214 117.869 132.486 117.954 132.832 118.05C133.266 118.167 133.619 118.285 133.891 118.403C134.163 118.513 134.395 118.682 134.586 118.91C134.785 119.138 134.888 119.436 134.895 119.804C134.895 120.135 134.803 120.433 134.619 120.698C134.435 120.963 134.174 121.172 133.836 121.327C133.505 121.474 133.122 121.548 132.688 121.548ZM135.937 118.403C135.937 117.785 136.062 117.244 136.313 116.781C136.563 116.31 136.905 115.946 137.339 115.688C137.78 115.431 138.269 115.302 138.806 115.302C139.336 115.302 139.796 115.416 140.186 115.644C140.576 115.872 140.866 116.159 141.057 116.505V115.401H142.073V121.448H141.057V120.323C140.859 120.676 140.561 120.97 140.164 121.205C139.774 121.433 139.318 121.548 138.795 121.548C138.258 121.548 137.773 121.415 137.339 121.15C136.905 120.885 136.563 120.514 136.313 120.036C136.062 119.558 135.937 119.013 135.937 118.403ZM141.057 118.414C141.057 117.958 140.965 117.56 140.782 117.222C140.598 116.884 140.348 116.626 140.031 116.45C139.722 116.266 139.38 116.174 139.005 116.174C138.63 116.174 138.288 116.262 137.979 116.439C137.67 116.615 137.423 116.873 137.239 117.211C137.056 117.549 136.964 117.947 136.964 118.403C136.964 118.866 137.056 119.271 137.239 119.616C137.423 119.955 137.67 120.216 137.979 120.4C138.288 120.576 138.63 120.665 139.005 120.665C139.38 120.665 139.722 120.576 140.031 120.4C140.348 120.216 140.598 119.955 140.782 119.616C140.965 119.271 141.057 118.87 141.057 118.414ZM146.716 115.291C147.451 115.291 148.047 115.515 148.503 115.964C148.959 116.405 149.187 117.045 149.187 117.884V121.448H148.194V118.028C148.194 117.424 148.044 116.965 147.742 116.648C147.44 116.325 147.028 116.163 146.506 116.163C145.976 116.163 145.553 116.328 145.237 116.659C144.928 116.99 144.774 117.472 144.774 118.105V121.448H143.77V115.401H144.774V116.262C144.972 115.953 145.241 115.714 145.579 115.545C145.925 115.376 146.304 115.291 146.716 115.291Z" fill="#2A9DDD"/>
<path d="M93.4571 105.236L98.8983 107.924" stroke="#2A9DDD" stroke-linecap="round" stroke-linejoin="round"/>
<path d="M112.452 96.0799L110.549 101.843" stroke="#2A9DDD" stroke-linecap="round" stroke-linejoin="round"/>
<path d="M103.988 103.137L100.821 97.6978" stroke="#2A9DDD" stroke-linecap="round" stroke-linejoin="round"/>
<path d="M97.0914 115.172L90.9026 116.318" stroke="#2A9DDD" stroke-linecap="round" stroke-linejoin="round"/>
<path fill-rule="evenodd" clip-rule="evenodd" d="M157.314 140.995L160.501 143.701C160.61 143.794 160.782 143.68 160.748 143.54C160.72 143.427 160.696 143.314 160.675 143.201C160.673 143.19 160.67 143.18 160.666 143.17L153.158 125.446C152.562 124.041 153.219 122.419 154.625 121.823C156.03 121.228 157.652 121.885 158.248 123.29L161.964 132.063C161.469 130.819 162.057 129.402 163.296 128.877C164.552 128.345 166.001 128.932 166.533 130.188L168.597 135.06C168.597 135.06 168.597 135.061 168.598 135.06C168.598 135.06 168.598 135.06 168.598 135.06L166.534 130.188C166.002 128.932 166.589 127.483 167.844 126.951C169.1 126.419 170.549 127.005 171.081 128.261L171.618 129.527C171.11 128.279 171.697 126.851 172.942 126.323C174.198 125.791 175.647 126.378 176.179 127.634L178.656 133.481C178.701 133.587 178.738 133.695 178.768 133.804L181.662 140.637C183.866 145.839 181.435 151.844 176.233 154.048L172.01 155.837C171.454 156.072 170.882 156.211 170.312 156.263C168.191 156.566 166.058 156.007 164.37 154.772C164.271 154.707 164.175 154.635 164.082 154.556L153.459 145.535C152.205 144.471 152.051 142.591 153.116 141.337C154.181 140.084 156.06 139.93 157.314 140.995Z" fill="white"/>
<path d="M157.314 140.995L156.99 141.376L157.314 140.995ZM153.158 125.446L153.618 125.251L153.158 125.446ZM158.248 123.29L158.708 123.095L158.248 123.29ZM161.964 132.063L161.504 132.258L162.429 131.878L161.964 132.063ZM166.534 130.188L166.994 129.993L166.534 130.188ZM171.618 129.527L171.157 129.722L172.081 129.339L171.618 129.527ZM178.768 133.804L178.285 133.934L178.294 133.967L178.307 133.999L178.768 133.804ZM181.662 140.637L181.202 140.832L181.662 140.637ZM170.312 156.263L170.267 155.765L170.254 155.766L170.241 155.768L170.312 156.263ZM164.37 154.772L164.666 154.369L164.656 154.362L164.646 154.355L164.37 154.772ZM164.082 154.556L163.759 154.937L163.759 154.937L164.082 154.556ZM153.459 145.535L153.782 145.154L153.459 145.535ZM153.116 141.337L152.735 141.014L152.735 141.014L153.116 141.337ZM160.675 143.201L161.167 143.111L160.675 143.201ZM160.666 143.17L161.127 142.975L160.666 143.17ZM168.598 135.06L168.137 135.255L168.598 135.06ZM160.501 143.701L160.824 143.32L160.501 143.701ZM160.748 143.54L160.263 143.66L160.748 143.54ZM160.824 143.32L157.637 140.614L156.99 141.376L160.177 144.082L160.824 143.32ZM160.183 143.29C160.206 143.414 160.232 143.537 160.263 143.66L161.233 143.42C161.208 143.317 161.186 143.214 161.167 143.111L160.183 143.29ZM152.697 125.641L160.206 143.365L161.127 142.975L153.618 125.251L152.697 125.641ZM154.43 121.363C152.77 122.066 151.994 123.982 152.697 125.641L153.618 125.251C153.13 124.1 153.668 122.771 154.82 122.284L154.43 121.363ZM158.708 123.095C158.005 121.435 156.089 120.66 154.43 121.363L154.82 122.284C155.971 121.796 157.3 122.334 157.787 123.485L158.708 123.095ZM162.424 131.868L158.708 123.095L157.787 123.485L161.504 132.258L162.424 131.868ZM163.101 128.417C161.611 129.048 160.904 130.752 161.499 132.247L162.429 131.878C162.034 130.886 162.503 129.756 163.491 129.337L163.101 128.417ZM166.993 129.992C166.354 128.482 164.611 127.777 163.101 128.417L163.491 129.337C164.492 128.913 165.648 129.381 166.072 130.383L166.993 129.992ZM169.057 134.865L166.993 129.992L166.072 130.383L168.137 135.255L169.057 134.865ZM166.073 130.383L168.137 135.255L169.058 134.865L166.994 129.993L166.073 130.383ZM167.649 126.49C166.139 127.13 165.434 128.873 166.073 130.383L166.994 129.993C166.57 128.991 167.038 127.835 168.039 127.411L167.649 126.49ZM171.542 128.066C170.902 126.556 169.159 125.851 167.649 126.49L168.039 127.411C169.041 126.987 170.197 127.455 170.621 128.456L171.542 128.066ZM172.078 129.332L171.542 128.066L170.621 128.456L171.157 129.722L172.078 129.332ZM172.747 125.863C171.25 126.497 170.544 128.215 171.155 129.716L172.081 129.339C171.676 128.343 172.144 127.204 173.137 126.784L172.747 125.863ZM176.64 127.439C176 125.929 174.257 125.223 172.747 125.863L173.137 126.784C174.139 126.359 175.295 126.827 175.719 127.829L176.64 127.439ZM179.117 133.286L176.64 127.439L175.719 127.829L178.196 133.676L179.117 133.286ZM179.25 133.673C179.215 133.543 179.171 133.413 179.117 133.286L178.196 133.676C178.232 133.761 178.262 133.847 178.285 133.934L179.25 133.673ZM182.123 140.442L179.228 133.609L178.307 133.999L181.202 140.832L182.123 140.442ZM176.428 154.508C181.885 152.196 184.434 145.899 182.123 140.442L181.202 140.832C183.298 145.78 180.986 151.491 176.038 153.587L176.428 154.508ZM172.205 156.297L176.428 154.508L176.038 153.587L171.815 155.376L172.205 156.297ZM170.357 156.761C170.978 156.705 171.601 156.553 172.205 156.297L171.815 155.376C171.308 155.591 170.786 155.718 170.267 155.765L170.357 156.761ZM170.241 155.768C168.252 156.052 166.25 155.528 164.666 154.369L164.075 155.176C165.866 156.486 168.13 157.08 170.383 156.758L170.241 155.768ZM163.759 154.937C163.867 155.029 163.979 155.113 164.095 155.189L164.646 154.355C164.564 154.301 164.483 154.24 164.406 154.175L163.759 154.937ZM153.135 145.916L163.759 154.937L164.406 154.175L153.782 145.154L153.135 145.916ZM152.735 141.014C151.492 142.478 151.671 144.673 153.135 145.916L153.782 145.154C152.739 144.268 152.611 142.704 153.497 141.661L152.735 141.014ZM157.637 140.614C156.173 139.37 153.978 139.549 152.735 141.014L153.497 141.661C154.383 140.618 155.947 140.49 156.99 141.376L157.637 140.614ZM168.137 135.255C168.244 135.51 168.538 135.629 168.793 135.521L168.403 134.6C168.657 134.492 168.95 134.611 169.057 134.865L168.137 135.255ZM161.167 143.111C161.159 143.065 161.145 143.02 161.127 142.975L160.206 143.365C160.195 143.341 160.188 143.315 160.183 143.29L161.167 143.111ZM168.793 135.521C169.047 135.413 169.166 135.119 169.058 134.865L168.137 135.255C168.03 135.001 168.148 134.708 168.403 134.6L168.793 135.521ZM160.177 144.082C160.435 144.301 160.755 144.255 160.953 144.126C161.148 143.998 161.311 143.734 161.233 143.42L160.263 143.66C160.22 143.486 160.314 143.349 160.404 143.29C160.497 143.229 160.676 143.194 160.824 143.32L160.177 144.082Z" fill="#2A9DDD"/>
<path d="M161.573 131.14L164.05 136.987" stroke="#2A9DDD" stroke-linecap="round" stroke-linejoin="round"/>
<path d="M166.121 129.213L168.598 135.06" stroke="#2A9DDD" stroke-linecap="round" stroke-linejoin="round"/>
<path d="M170.944 127.936L173.146 133.134" stroke="#2A9DDD" stroke-linecap="round" stroke-linejoin="round"/>
<rect width="60.6897" height="61.7932" rx="6.6207" transform="matrix(-1 0 0 1 94.0685 154.758)" fill="white" stroke="#2A9DDD"/>
<rect width="50.7587" height="8.8276" rx="4.4138" transform="matrix(-1 0 0 1 58.7577 168)" fill="#E5F3F8" stroke="#2A9DDD"/>
<rect width="51.8621" height="8.8276" rx="4.4138" transform="matrix(-1 0 0 1 64.2753 181.241)" fill="#E5F3F8" stroke="#2A9DDD"/>
<rect width="50.7587" height="8.8276" rx="4.4138" transform="matrix(-1 0 0 1 58.7577 194.483)" fill="#E5F3F8" stroke="#2A9DDD"/>
</svg>
