<svg width="134" height="138" viewBox="0 0 134 138" fill="none" xmlns="http://www.w3.org/2000/svg">
<rect x="2.5" y="52.6672" width="55" height="7" rx="3.5" fill="white" stroke="#2A9DDD"/>
<path fill-rule="evenodd" clip-rule="evenodd" d="M20.5574 44.2049L13.5057 54.3057C12.2587 56.0919 9.86417 56.5815 8.01094 55.4292C5.94684 54.1458 5.36988 51.3525 6.75785 49.3624L17.4639 34.012C18.0138 33.2236 18.9038 32.7567 19.8567 32.7567L23.53 32.7567C23.5392 32.7566 23.5483 32.7566 23.5574 32.7566H36.9686C36.9778 32.7566 36.9869 32.7566 36.996 32.7567L40.6728 32.7567C41.6257 32.7567 42.5157 33.2236 43.0656 34.012L53.7717 49.3624C55.1596 51.3525 54.5827 54.1458 52.5186 55.4292C50.6653 56.5815 48.2708 56.0919 47.0238 54.3057L39.9686 44.2V50.381C39.9686 52.0378 38.6255 53.381 36.9686 53.381H23.5574C21.9006 53.381 20.5574 52.0378 20.5574 50.381V44.2049Z" fill="white"/>
<path d="M20.5574 44.2049H21.0574C21.0574 43.9866 20.9157 43.7935 20.7075 43.728C20.4992 43.6625 20.2724 43.7397 20.1475 43.9187L20.5574 44.2049ZM13.5057 54.3057L13.9157 54.592H13.9157L13.5057 54.3057ZM8.01094 55.4292L7.74693 55.8538L7.74693 55.8538L8.01094 55.4292ZM6.75785 49.3624L7.16796 49.6485L6.75785 49.3624ZM17.4639 34.012L17.8741 34.2981V34.2981L17.4639 34.012ZM19.8567 32.7567L19.8567 32.2567L19.8567 32.7567ZM23.53 32.7567L23.53 33.2567L23.5345 33.2567L23.53 32.7567ZM36.996 32.7567L36.9915 33.2567H36.996L36.996 32.7567ZM40.6728 32.7567L40.6728 33.2567L40.6728 32.7567ZM43.0656 34.012L42.6555 34.2981V34.2981L43.0656 34.012ZM53.7717 49.3624L53.3616 49.6485L53.7717 49.3624ZM52.5186 55.4292L52.7826 55.8538V55.8538L52.5186 55.4292ZM47.0238 54.3057L46.6139 54.592L47.0238 54.3057ZM39.9686 44.2L40.3786 43.9137C40.2536 43.7347 40.0269 43.6575 39.8186 43.723C39.6103 43.7885 39.4686 43.9816 39.4686 44.2H39.9686ZM20.1475 43.9187L13.0957 54.0195L13.9157 54.592L20.9674 44.4911L20.1475 43.9187ZM13.0957 54.0195C12.0013 55.5871 9.9031 56.0169 8.27495 55.0046L7.74693 55.8538C9.82524 57.1461 12.5161 56.5967 13.9157 54.592L13.0957 54.0195ZM8.27495 55.0046C6.45339 53.872 5.9444 51.4028 7.16796 49.6485L6.34774 49.0764C4.79537 51.3022 5.44029 54.4196 7.74693 55.8538L8.27495 55.0046ZM7.16796 49.6485L17.8741 34.2981L17.0538 33.726L6.34774 49.0764L7.16796 49.6485ZM17.8741 34.2981C18.3314 33.6423 19.069 33.2567 19.8567 33.2567L19.8567 32.2567C18.7387 32.2567 17.6962 32.8049 17.0538 33.726L17.8741 34.2981ZM19.8567 33.2567L23.53 33.2567L23.53 32.2567L19.8567 32.2567L19.8567 33.2567ZM23.5345 33.2567C23.5421 33.2566 23.5498 33.2566 23.5574 33.2566V32.2566C23.5468 32.2566 23.5362 32.2566 23.5256 32.2567L23.5345 33.2567ZM23.5574 33.2566H36.9686V32.2566H23.5574V33.2566ZM36.9686 33.2566C36.9763 33.2566 36.9839 33.2566 36.9915 33.2567L37.0005 32.2567C36.9899 32.2566 36.9792 32.2566 36.9686 32.2566V33.2566ZM40.6728 32.2567L36.996 32.2567L36.996 33.2567L40.6728 33.2567L40.6728 32.2567ZM43.4757 33.726C42.8333 32.8049 41.7908 32.2567 40.6728 32.2567L40.6728 33.2567C41.4605 33.2567 42.1981 33.6423 42.6555 34.2981L43.4757 33.726ZM54.1818 49.0764L43.4757 33.726L42.6555 34.2981L53.3616 49.6485L54.1818 49.0764ZM52.7826 55.8538C55.0892 54.4196 55.7341 51.3022 54.1818 49.0764L53.3616 49.6485C54.5851 51.4028 54.0761 53.872 52.2546 55.0046L52.7826 55.8538ZM46.6139 54.592C48.0134 56.5967 50.7043 57.1461 52.7826 55.8538L52.2546 55.0046C50.6264 56.0169 48.5282 55.5871 47.4338 54.0195L46.6139 54.592ZM39.5586 44.4862L46.6139 54.592L47.4338 54.0195L40.3786 43.9137L39.5586 44.4862ZM39.4686 44.2V50.381H40.4686V44.2H39.4686ZM39.4686 50.381C39.4686 51.7617 38.3493 52.881 36.9686 52.881V53.881C38.9016 53.881 40.4686 52.314 40.4686 50.381H39.4686ZM36.9686 52.881H23.5574V53.881H36.9686V52.881ZM23.5574 52.881C22.1767 52.881 21.0574 51.7617 21.0574 50.381H20.0574C20.0574 52.314 21.6244 53.881 23.5574 53.881V52.881ZM21.0574 50.381V44.2049H20.0574V50.381H21.0574Z" fill="#2A9DDD"/>
<rect x="7.5" y="61.5095" width="45" height="49" rx="9.5" fill="white" stroke="#2A9DDD"/>
<path d="M44.7585 54.036L48.2879 42.036L54.7585 40.036" stroke="#2A9DDD" stroke-linecap="round" stroke-linejoin="round"/>
<circle cx="54.3978" cy="37.5432" r="5.5" fill="#E5F3F8" stroke="#2A9DDD"/>
<path d="M15.6393 54.0357L12.1099 42.0357L5.63931 40.0357" stroke="#2A9DDD" stroke-linecap="round" stroke-linejoin="round"/>
<circle cx="6" cy="6" r="5.5" transform="matrix(-1 0 0 1 12 31.543)" fill="#E5F3F8" stroke="#2A9DDD"/>
<rect x="12.5026" y="49.0281" width="35" height="13" rx="6.5" fill="white" stroke="#2A9DDD"/>
<rect x="26.5" y="87.5" width="7" height="17" rx="3.5" fill="white" stroke="#2A9DDD"/>
<circle cx="30" cy="56.1013" r="9.5" fill="#E5F3F8" stroke="#2A9DDD"/>
<circle cx="30.6393" cy="18.0657" r="11.5" fill="white" stroke="#2A9DDD"/>
<rect x="15" y="11.7649" width="6" height="10" rx="2.5" fill="#E5F3F8" stroke="#2A9DDD"/>
<rect x="40.4785" y="11.7649" width="6" height="10" rx="2.5" fill="#E5F3F8" stroke="#2A9DDD"/>
<path d="M44.4191 13.0263C44.5041 13.8405 44.1643 14.5249 43.5857 14.9868C42.9998 15.4546 42.1681 15.6908 41.3077 15.5594L31.3222 14.0347C30.9455 13.9771 30.5626 13.9719 30.1845 14.0191L20.1611 15.2705C19.2974 15.3783 18.4725 15.1194 17.8996 14.6358C17.3339 14.1583 17.0129 13.4649 17.1201 12.6533C17.2228 11.8751 17.3923 11.105 17.6278 10.3516C18.214 8.47641 19.1953 6.74863 20.5057 5.28474C21.8161 3.82085 23.4251 2.65489 25.2242 1.86543C27.0234 1.07597 28.9708 0.681362 30.9353 0.708206C32.8999 0.73505 34.8358 1.18272 36.6127 2.02104C38.3896 2.85937 39.9661 4.06886 41.236 5.56801C42.5059 7.06715 43.4397 8.82111 43.9744 10.7117C44.1892 11.4711 44.3376 12.2456 44.4191 13.0263Z" fill="#E5F3F8" stroke="#2A9DDD"/>
<rect x="23.5" y="106.5" width="13" height="31" rx="5.5" fill="#E5F3F8" stroke="#2A9DDD"/>
<rect x="18.5" y="97.5" width="23" height="7" rx="3.5" fill="#E5F3F8" stroke="#2A9DDD"/>
<rect x="100.649" y="53.1876" width="8.5" height="83.3125" rx="4.25" fill="#E5F3F8" stroke="#2A9DDD"/>
<circle cx="104.898" cy="55.0625" r="28" fill="white" stroke="#2A9DDD"/>
<path d="M113.857 62.4354L107.138 69.1539C106.545 69.7471 105.74 70.0803 104.9 70.0803C104.061 70.0803 103.256 69.7471 102.662 69.1539L95.9419 62.4354C94.1704 60.6638 92.964 58.4067 92.4753 55.9494C91.9866 53.4922 92.2375 50.9452 93.1963 48.6306C94.155 46.316 95.7787 44.3376 97.8618 42.9457C99.9449 41.5539 102.394 40.8109 104.899 40.8109C107.405 40.8109 109.854 41.5539 111.937 42.9457C114.02 44.3376 115.644 46.316 116.603 48.6306C117.561 50.9452 117.812 53.4922 117.323 55.9494C116.835 58.4067 115.628 60.6638 113.857 62.4354Z" fill="#E5F3F8" stroke="#2A9DDD" stroke-linecap="round" stroke-linejoin="round"/>
<path d="M104.9 58.229C107.524 58.229 109.65 56.1022 109.65 53.4787C109.65 50.8552 107.524 48.7284 104.9 48.7284C102.277 48.7284 100.15 50.8552 100.15 53.4787C100.15 56.1022 102.277 58.229 104.9 58.229Z" fill="white" stroke="#2A9DDD" stroke-linecap="round" stroke-linejoin="round"/>
</svg>
