<svg width="80" height="80" viewBox="0 0 80 80" fill="none" xmlns="http://www.w3.org/2000/svg">
<circle cx="40" cy="40" r="40" fill="#E5F3F8"/>
<rect x="17.1425" y="28.5715" width="45.7143" height="34.2859" rx="6.66667" fill="white" stroke="#2A9DDD"/>
<rect x="30.2591" y="39.7737" width="19.51" height="11.0318" rx="5.51588" fill="#E5F3F8" stroke="#2A9DDD"/>
<path d="M50.0939 39.3124C50.0939 42.0871 47.8674 44.3282 45.1311 44.3282C42.3948 44.3282 40.1683 42.0871 40.1683 39.3124C40.1683 36.5376 42.3948 34.2965 45.1311 34.2965C47.8674 34.2965 50.0939 36.5376 50.0939 39.3124Z" fill="#E5F3F8" stroke="#2A9DDD"/>
<path d="M43.0694 29.0925C43.0694 30.9969 41.5418 32.5324 39.6674 32.5324C37.7931 32.5324 36.2654 30.9969 36.2654 29.0925C36.2654 27.1881 37.7931 25.6526 39.6674 25.6526C41.5418 25.6526 43.0694 27.1881 43.0694 29.0925Z" fill="#E5F3F8" stroke="#2A9DDD"/>
<path d="M46.7717 20.2598C46.7717 21.7051 45.6 22.8767 44.1548 22.8767C42.7095 22.8767 41.5379 21.7051 41.5379 20.2598C41.5379 18.8146 42.7095 17.6429 44.1548 17.6429C45.6 17.6429 46.7717 18.8146 46.7717 20.2598Z" fill="#E5F3F8" stroke="#2A9DDD"/>
</svg>
